<?xml version="1.0" encoding="UTF-8"?>
<svg version="1.1" xmlns="http://www.w3.org/2000/svg" width="1003" height="259">
<path d="M0 0 C330.99 0 661.98 0 1003 0 C1003 85.47 1003 170.94 1003 259 C672.01 259 341.02 259 0 259 C0 173.53 0 88.06 0 0 Z " fill="#D7D8DA" transform="translate(0,0)"/>
<path d="M0 0 C1.43762695 -0.01160156 1.43762695 -0.01160156 2.90429688 -0.0234375 C7.93708976 -0.00952515 12.10092398 0.25450898 16.8125 2.25 C16.8125 2.91 16.8125 3.57 16.8125 4.25 C18.1428125 4.4046875 18.1428125 4.4046875 19.5 4.5625 C23.0842175 5.3063942 24.97806343 5.93769648 27.8125 8.25 C28.99888084 10.29024664 29.98510613 12.34039552 30.91796875 14.5078125 C31.69078135 16.43555831 31.69078135 16.43555831 33.8125 17.25 C34.8828125 19.359375 34.8828125 19.359375 35.9375 22 C36.46730469 23.29164062 36.46730469 23.29164062 37.0078125 24.609375 C37.83036806 27.30863498 37.96373996 29.44701945 37.8125 32.25 C38.4725 32.25 39.1325 32.25 39.8125 32.25 C39.791875 32.88164063 39.77125 33.51328125 39.75 34.1640625 C39.98945024 44.55021652 45.21438458 51.85282687 50.8125 60.25 C50.8125 61.57 50.8125 62.89 50.8125 64.25 C51.8025 64.58 52.7925 64.91 53.8125 65.25 C55 68.3125 55 68.3125 55.8125 71.25 C56.4725 71.25 57.1325 71.25 57.8125 71.25 C63.18380778 83.04769387 64.45847821 98.8154006 59.87109375 111.12890625 C57.90158076 115.07519981 55.70963169 118.90901805 52.8125 122.25 C52.1525 122.25 51.4925 122.25 50.8125 122.25 C50.73 122.806875 50.6475 123.36375 50.5625 123.9375 C48.79178196 129.39721396 44.18124933 132.83401562 39.75 136.1875 C39.17999268 136.6220752 38.60998535 137.05665039 38.02270508 137.50439453 C32.9047596 141.32596449 27.53572626 144.41704394 21.8125 147.25 C21.21203857 147.559375 20.61157715 147.86875 19.99291992 148.1875 C6.28813696 155.19792711 -6.38446614 157.82328589 -21.75 157.75 C-22.44997101 157.74826782 -23.14994202 157.74653564 -23.87112427 157.74475098 C-35.76884754 157.66865246 -35.76884754 157.66865246 -38.1875 155.25 C-40.08889678 154.73195477 -42.00942342 154.28267788 -43.9375 153.875 C-48.84422106 152.69785314 -52.1714048 151.39303102 -56.1875 148.25 C-57.9780545 147.04001923 -59.76980828 145.83181203 -61.5625 144.625 C-64.2109375 142.8359375 -64.2109375 142.8359375 -66.1875 141.25 C-66.1875 140.59 -66.1875 139.93 -66.1875 139.25 C-66.991875 138.9096875 -66.991875 138.9096875 -67.8125 138.5625 C-73.48756999 135.42627711 -76.80447526 131.70649152 -80.1875 126.25 C-81.09812622 124.9955927 -82.01490577 123.74563143 -82.9375 122.5 C-85.1875 119.25 -85.1875 119.25 -85.1875 117.25 C-85.8475 117.25 -86.5075 117.25 -87.1875 117.25 C-88.58462274 115.29402816 -89.90677629 113.2840906 -91.1875 111.25 C-91.868125 110.321875 -92.54875 109.39375 -93.25 108.4375 C-98.46604794 99.85625985 -99.3681402 90.76759986 -99.375 80.9375 C-99.38724609 80.02548828 -99.39949219 79.11347656 -99.41210938 78.17382812 C-99.443561 63.54882218 -93.58576248 50.67333462 -83.4375 40.1875 C-80.48001701 37.25 -80.48001701 37.25 -78.1875 37.25 C-78.1875 36.59 -78.1875 35.93 -78.1875 35.25 C-76.82983398 34.07666016 -76.82983398 34.07666016 -74.93359375 32.7890625 C-74.24330078 32.31726562 -73.55300781 31.84546875 -72.84179688 31.359375 C-71.74448242 30.62460937 -71.74448242 30.62460937 -70.625 29.875 C-69.56829102 29.15183594 -69.56829102 29.15183594 -68.49023438 28.4140625 C-56.45489767 20.25 -56.45489767 20.25 -53.1875 20.25 C-53.1875 19.59 -53.1875 18.93 -53.1875 18.25 C-48.68643296 14.47910606 -44.17265697 11.55693113 -38.1875 11.25 C-38.1875 10.59 -38.1875 9.93 -38.1875 9.25 C-37.07375 8.8375 -35.96 8.425 -34.8125 8 C-30.81806648 6.51353532 -26.89191536 4.88876402 -22.97265625 3.21484375 C-15.31087224 0.56062124 -8.0772471 -0.0659816 0 0 Z " fill="#6DA3F9" transform="translate(212.1875,29.75)"/>
<path d="M0 0 C0 0.66 0 1.32 0 2 C0.72316406 2.24492188 1.44632813 2.48984375 2.19140625 2.7421875 C11.25622139 6.80181264 19.07140689 15.92365564 22.66015625 25.0703125 C26.91764442 36.56602736 28 45.13001944 28 58 C-5.99 58 -39.98 58 -75 58 C-73.34312909 67.65107994 -73.34312909 67.65107994 -69.875 76.0625 C-67 81.84688995 -67 81.84688995 -67 84 C-66.13375 84.37511719 -66.13375 84.37511719 -65.25 84.7578125 C-62.70589761 86.16236903 -61.04828771 87.81895362 -59 89.875 C-53.92866058 94.53148862 -48.58246808 96.30704713 -42 98 C-42 98.66 -42 99.32 -42 100 C-25.44509654 100.02995201 -10.69354014 99.65214362 1.95703125 87.5 C6.06451408 82.47363477 9.03548738 76.75131603 12 71 C18.24717529 70.76001247 20.90045061 71.66968203 26 75 C23.33312491 86.23897359 15.31792263 96.2910957 6 103 C3.8046875 103.640625 3.8046875 103.640625 2 104 C2 104.66 2 105.32 2 106 C0.00244091 106.79780561 -1.99818885 107.58792425 -4 108.375 C-5.11375 108.81585938 -6.2275 109.25671875 -7.375 109.7109375 C-15.30270794 112.53005778 -22.00400187 113.31574082 -30.375 113.25 C-31.35210938 113.25773437 -32.32921875 113.26546875 -33.3359375 113.2734375 C-39.77901478 113.25630166 -45.73750669 112.50932449 -52 111 C-52 110.34 -52 109.68 -52 109 C-53.918125 108.7215625 -53.918125 108.7215625 -55.875 108.4375 C-67.54896582 105.73367067 -74.73434453 96.5877144 -81 87 C-89.76218323 72.75914642 -92.52468906 55.28951858 -89.2734375 38.87109375 C-86.11453971 26.14561526 -81.24053798 17.27180883 -72 8 C-71.37222656 7.34902344 -70.74445312 6.69804688 -70.09765625 6.02734375 C-51.44046241 -11.91985117 -21.8532302 -9.99222742 0 0 Z " fill="#282724" transform="translate(810,54)"/>
<path d="M0 0 C0.94875 0.35964844 1.8975 0.71929687 2.875 1.08984375 C5.26755167 2.0236035 7.63848162 2.99084789 10 4 C10 4.66 10 5.32 10 6 C10.99 6.2784375 10.99 6.2784375 12 6.5625 C21.95562941 11.33290576 30.12856252 21.78139892 34 32 C37.66327748 42.73631843 38 50.0452396 38 62 C4.01 62 -29.98 62 -65 62 C-61.77589073 77.04584325 -58.23323035 88.01145244 -45.4375 96.75 C-44.633125 97.1625 -43.82875 97.575 -43 98 C-41.7902504 98.70591179 -40.58200439 99.41440451 -39.375 100.125 C-33.58210595 103.34327447 -28.90608982 103.21593238 -22.4375 103.25 C-21.48552734 103.270625 -20.53355469 103.29125 -19.55273438 103.3125 C-8.01311182 103.37534342 2.30267332 100.04748706 10.97265625 92.21875 C15.72886998 87.11758011 18.88789397 81.20141275 22 75 C26.83628305 75.99043705 31.47618873 76.95698846 36 79 C33.27850378 90.46916265 25.45691119 99.80022529 16.10546875 106.73046875 C14 108 14 108 11.30078125 108.98828125 C10.54152344 109.32214844 9.78226563 109.65601563 9 110 C8.505 111.485 8.505 111.485 8 113 C5.55859375 113.9140625 5.55859375 113.9140625 2.4375 114.625 C1.42558594 114.86476563 0.41367187 115.10453125 -0.62890625 115.3515625 C-18.07146636 118.70667835 -39.36397472 118.69810197 -54.8984375 108.671875 C-69.19088775 97.30167294 -77.88208616 83.43214127 -80 65 C-81.16085069 47.8156037 -78.50996305 30.37102673 -67 17 C-66.52304687 16.34644531 -66.04609375 15.69289063 -65.5546875 15.01953125 C-51.31172533 -3.48200504 -20.92701139 -8.22624296 0 0 Z " fill="#282724" transform="translate(670,50)"/>
<path d="M0 0 C6.24211092 4.58890338 10.19846059 9.32617013 13.49609375 16.3515625 C14.01171875 17.2796875 14.52734375 18.2078125 15.05859375 19.1640625 C20.43435468 31.08422805 19.93931911 46.8539297 16.49609375 59.3515625 C15.85453174 61.028053 15.19398809 62.69772886 14.49609375 64.3515625 C13.83609375 64.3515625 13.17609375 64.3515625 12.49609375 64.3515625 C12.26921875 65.1971875 12.04234375 66.0428125 11.80859375 66.9140625 C8.18652014 76.40044576 2.29819214 79.87291294 -6.50390625 84.3515625 C-7.72980469 85.00898438 -7.72980469 85.00898438 -8.98046875 85.6796875 C-18.64317723 90.26866611 -31.45882728 89.78158947 -41.50390625 86.3515625 C-48.3071565 83.30476614 -54.17372384 79.56329641 -59.50390625 74.3515625 C-59.50390625 73.6915625 -59.50390625 73.0315625 -59.50390625 72.3515625 C-60.16390625 72.3515625 -60.82390625 72.3515625 -61.50390625 72.3515625 C-62.16390625 70.7015625 -62.82390625 69.0515625 -63.50390625 67.3515625 C-64.16390625 67.3515625 -64.82390625 67.3515625 -65.50390625 67.3515625 C-66.23847501 65.38158265 -66.97297775 63.41157815 -67.70703125 61.44140625 C-68.31170746 59.85561324 -68.96035977 58.28650429 -69.62890625 56.7265625 C-73.7176027 45.62867215 -72.85442491 29.90647162 -68.09375 19.171875 C-64.55352286 12.05916353 -60.88668322 7.04478086 -54.50390625 2.3515625 C-53.70984375 1.67738281 -52.91578125 1.00320312 -52.09765625 0.30859375 C-38.82132624 -9.70863717 -13.43362358 -8.84397684 0 0 Z " fill="#D6D6D5" transform="translate(939.50390625,66.6484375)"/>
<path d="M0 0 C5.53901614 4.765183 8.27100486 10.13020025 11 16.8125 C11.31453125 17.49699219 11.6290625 18.18148437 11.953125 18.88671875 C18.75203075 33.71766512 18.71101708 51.03444318 15.25 66.75 C15.01470581 67.83897583 15.01470581 67.83897583 14.7746582 68.94995117 C13.63577712 73.59778769 11.8014423 76.96673305 9 80.8125 C8.3382978 81.99123116 7.68886339 83.1771161 7.0625 84.375 C5.15045194 87.75443378 2.89126244 90.1901922 0 92.8125 C-0.45632813 93.27269531 -0.91265625 93.73289062 -1.3828125 94.20703125 C-13.26886584 105.52565993 -27.51169918 107.34137933 -43.16015625 107.0859375 C-57.07018824 106.53380025 -67.47051909 100.87452999 -76.875 90.8125 C-85 81.36449115 -85 81.36449115 -85 75.8125 C-85.66 75.8125 -86.32 75.8125 -87 75.8125 C-87 99.5725 -87 123.3325 -87 147.8125 C-91.95 147.8125 -96.9 147.8125 -102 147.8125 C-102 95.3425 -102 42.8725 -102 -11.1875 C-97.05 -11.1875 -92.1 -11.1875 -87 -11.1875 C-86.67 -1.9475 -86.34 7.2925 -86 16.8125 C-84.35 13.5125 -82.7 10.2125 -81 6.8125 C-78.625 4.125 -78.625 4.125 -76 1.8125 C-75.52175781 1.27109375 -75.04351563 0.7296875 -74.55078125 0.171875 C-55.18869099 -21.39364926 -20.79889561 -15.58500352 0 0 Z M-76.7734375 14.72265625 C-86.50033785 26.74550008 -87.73704806 39.93149973 -87 54.8125 C-86.34517367 60.33387657 -84.62065329 64.91301777 -82 69.8125 C-81.3125 72.1875 -81.3125 72.1875 -81 73.8125 C-80.34 73.8125 -79.68 73.8125 -79 73.8125 C-78.34 75.4625 -77.68 77.1125 -77 78.8125 C-76.34 78.8125 -75.68 78.8125 -75 78.8125 C-74.61134766 79.71162109 -74.61134766 79.71162109 -74.21484375 80.62890625 C-70.39191565 87.50034293 -61.100603 91.33370813 -54 93.8125 C-37.78054374 96.69554555 -26.69252787 94.05952841 -12.77734375 85.9296875 C-9.73267476 83.6087162 -8.10288101 81.44880602 -6.125 78.1875 C-5.52945313 77.22585937 -4.93390625 76.26421875 -4.3203125 75.2734375 C-2.84241176 72.98422835 -2.84241176 72.98422835 -3 70.8125 C-2.34 70.8125 -1.68 70.8125 -1 70.8125 C-0.525625 69.6575 -0.05125 68.5025 0.4375 67.3125 C0.70433594 66.6628125 0.97117187 66.013125 1.24609375 65.34375 C5.02588337 52.65305739 4.53646027 35.74417434 -0.94921875 23.734375 C-1.87943318 22.04307603 -2.93674738 20.42348881 -4 18.8125 C-4.598125 17.801875 -5.19625 16.79125 -5.8125 15.75 C-10.36278866 9.63961237 -15.98425316 5.69748001 -23 2.8125 C-24.26457031 2.27496094 -24.26457031 2.27496094 -25.5546875 1.7265625 C-43.94373349 -3.15216399 -63.77735472 0.72467282 -76.7734375 14.72265625 Z " fill="#272623" transform="translate(955,60.1875)"/>
<path d="M0 0 C4.62 0 9.24 0 14 0 C14 20.13 14 40.26 14 61 C14.66 61 15.32 61 16 61 C16 60.34 16 59.68 16 59 C17.61467878 57.60416047 19.29417495 56.28285481 21 55 C21.92554688 54.2884375 22.85109375 53.576875 23.8046875 52.84375 C24.81789063 52.0703125 25.83109375 51.296875 26.875 50.5 C32.41964468 46.25190002 37.88772055 41.91485435 43.33251953 37.53979492 C47.61519309 34.10054472 51.923439 30.69632927 56.25 27.3125 C60.50088346 23.98706373 64.70878155 20.61917856 68.875 17.1875 C73.15968191 13.660052 77.52881254 10.28617341 82 7 C83.03833984 6.17628906 83.03833984 6.17628906 84.09765625 5.3359375 C86 4 86 4 88 4 C88 3.34 88 2.68 88 2 C94.93 2 101.86 2 109 2 C107.68864618 5.93406147 105.8842825 6.84500863 102.5625 9.3125 C101.38856094 10.19169182 100.21543187 11.07196587 99.04296875 11.953125 C98.40149902 12.43330078 97.7600293 12.91347656 97.09912109 13.40820312 C94.79145133 15.15814577 92.51326394 16.94215816 90.23828125 18.734375 C89.43253662 19.36819092 88.62679199 20.00200684 87.79663086 20.6550293 C86.19780303 21.91439434 84.6009174 23.17622951 83.00610352 24.44067383 C82.26932373 25.01841553 81.53254395 25.59615723 80.7734375 26.19140625 C80.11778809 26.70904541 79.46213867 27.22668457 78.78662109 27.76000977 C77 29 77 29 74 30 C74 30.66 74 31.32 74 32 C72.38600386 33.31730567 70.70586161 34.55404267 69 35.75 C68.00355469 36.45640625 67.00710938 37.1628125 65.98046875 37.890625 C64.99691406 38.58671875 64.01335937 39.2828125 63 40 C61.43271453 41.16022999 59.86947945 42.325976 58.3125 43.5 C57.34763672 44.22703125 57.34763672 44.22703125 56.36328125 44.96875 C55.91339844 45.3090625 55.46351563 45.649375 55 46 C56.59793608 49.86243977 59.22151685 52.5821296 62.0625 55.5625 C66.52922432 60.3341402 70.71621556 65.25769973 74.8203125 70.34765625 C78.39726836 74.70026025 82.19933367 78.8430212 86 83 C91.43456647 88.94405708 96.66400716 94.98616001 101.72265625 101.25390625 C104.73935677 104.89153998 107.92703727 108.35575242 111.15234375 111.80859375 C112.84536734 113.81659848 113.9574803 115.60384216 115 118 C99.37668402 119.51682679 99.37668402 119.51682679 94.1171875 116.16015625 C91.82614184 113.56117434 89.91678769 110.88482333 88 108 C86.47431255 106.13266288 84.93248448 104.27839985 83.375 102.4375 C80.07424897 98.37194081 76.85278845 94.25395637 73.703125 90.0703125 C71.96495256 87.88869849 71.96495256 87.88869849 69.65234375 85.65625 C66.69385616 82.69340529 64.0086261 79.57432626 61.3125 76.375 C58.2657655 72.77522317 55.21442766 69.1943847 51.99609375 65.74609375 C51.53227295 65.24867676 51.06845215 64.75125977 50.59057617 64.23876953 C49.32185243 62.88894544 48.04400077 61.54771779 46.765625 60.20703125 C45 58 45 58 45 55 C41.5012119 57.0099421 38.37329739 59.19828645 35.25 61.75 C31.27381176 64.97473599 27.26115088 68.1407561 23.203125 71.26171875 C22.47609375 71.83535156 21.7490625 72.40898438 21 73 C19.98115723 73.6703125 18.96231445 74.340625 17.91259766 75.03125 C15.2531148 77.26780614 14.54419317 78.78781219 14.22705078 82.23950195 C14.18632935 83.90529765 14.17746832 85.57208345 14.1953125 87.23828125 C14.18160614 88.11904831 14.16789978 88.99981537 14.15377808 89.90727234 C14.11650472 92.70953576 14.12019095 95.51002406 14.125 98.3125 C14.10687128 100.21682454 14.08606804 102.12112563 14.0625 104.02539062 C14.01067417 108.68389085 13.9955676 113.34122732 14 118 C9.38 118 4.76 118 0 118 C0 79.06 0 40.12 0 0 Z " fill="#272623" transform="translate(483,47)"/>
<path d="M0 0 C0.90983643 0.00902344 1.81967285 0.01804688 2.75708008 0.02734375 C15.62957631 0.35360256 26.56819996 2.89098246 35.8125 12.4375 C40.8125 18.26704545 40.8125 18.26704545 40.8125 21.4375 C41.4725 21.4375 42.1325 21.4375 42.8125 21.4375 C43.63072733 23.81066118 44.44218707 26.1857942 45.25 28.5625 C45.48009766 29.22765625 45.71019531 29.8928125 45.94726562 30.578125 C46.28081055 31.56425781 46.28081055 31.56425781 46.62109375 32.5703125 C46.92744751 33.46580811 46.92744751 33.46580811 47.23999023 34.37939453 C48.69035105 39.59327158 48.95410095 44.71414479 48.92602539 50.09521484 C48.92617142 50.83736237 48.92631744 51.57950989 48.9264679 52.34414673 C48.92577539 54.77894083 48.91801419 57.21365689 48.91015625 59.6484375 C48.90828972 61.34380044 48.90686692 63.03916392 48.90586853 64.73452759 C48.90206189 69.18310044 48.89224751 73.63164032 48.88116455 78.0802002 C48.87091051 82.62507684 48.86636237 87.16995885 48.86132812 91.71484375 C48.8506235 100.6224126 48.83304179 109.52994839 48.8125 118.4375 C44.1925 118.4375 39.5725 118.4375 34.8125 118.4375 C34.782771 115.2977063 34.782771 115.2977063 34.75244141 112.09448242 C34.68522518 105.14144565 34.60759223 98.18855242 34.52497292 91.23568249 C34.47524587 87.02442337 34.42891587 82.8131865 34.390625 78.60180664 C34.35347149 74.52977214 34.30703464 70.4579354 34.25443649 66.38607216 C34.23605084 64.84056415 34.22088598 63.295014 34.20915604 61.74944115 C34.21112979 41.53614587 34.21112979 41.53614587 24.77734375 24.29296875 C22.24721477 22.03835291 19.8515827 19.95704135 16.8125 18.4375 C16.8125 17.7775 16.8125 17.1175 16.8125 16.4375 C10.74420487 14.63948663 5.03855674 14.21843367 -1.25 14.1875 C-2.00522949 14.17847656 -2.76045898 14.16945313 -3.53857422 14.16015625 C-8.74200662 14.18729869 -13.18599206 14.99285172 -18.1875 16.4375 C-19.05117188 16.68628906 -19.91484375 16.93507813 -20.8046875 17.19140625 C-29.76588272 20.40069243 -36.83953507 26.14457771 -41.1875 34.6875 C-41.88522991 36.25739231 -42.55311299 37.84095936 -43.1875 39.4375 C-43.5302597 40.15934982 -43.87301941 40.88119965 -44.22616577 41.62492371 C-45.42269502 45.12561025 -45.4685268 48.09795525 -45.50634766 51.7980957 C-45.51639328 52.52059006 -45.5264389 53.24308441 -45.53678894 53.98747253 C-45.56754662 56.36273442 -45.58463516 58.73788396 -45.6015625 61.11328125 C-45.62028014 62.76524314 -45.639854 64.41719553 -45.6602478 66.06913757 C-45.71151211 70.40750521 -45.75116826 74.74590382 -45.78839111 79.08441162 C-45.82846657 83.51533638 -45.87954274 87.94613291 -45.9296875 92.37695312 C-46.02637934 101.06372084 -46.10978838 109.75054174 -46.1875 118.4375 C-50.8075 118.4375 -55.4275 118.4375 -60.1875 118.4375 C-60.1875 80.1575 -60.1875 41.8775 -60.1875 2.4375 C-55.5675 2.4375 -50.9475 2.4375 -46.1875 2.4375 C-45.8575 11.0175 -45.5275 19.5975 -45.1875 28.4375 C-43.2075 24.8075 -41.2275 21.1775 -39.1875 17.4375 C-29.74050461 5.143006 -15.16989889 -0.18213555 0 0 Z " fill="#252421" transform="translate(416.1875,46.5625)"/>
<path d="M0 0 C1.00490479 -0.01482422 2.00980957 -0.02964844 3.04516602 -0.04492188 C12.62504296 0.08649148 21.30439133 2.6256377 28.9375 8.5625 C29.57300781 9.02011719 30.20851563 9.47773437 30.86328125 9.94921875 C37.03508153 14.74950785 39.9090533 20.45838672 42.9375 27.5625 C43.27910156 28.35785156 43.62070312 29.15320313 43.97265625 29.97265625 C45.35372317 33.40926463 45.9375 35.81197099 45.9375 39.5625 C16.5675 39.5625 -12.8025 39.5625 -43.0625 39.5625 C-42.7325 35.9325 -42.4025 32.3025 -42.0625 28.5625 C-41.4025 28.5625 -40.7425 28.5625 -40.0625 28.5625 C-40.02125 27.758125 -39.98 26.95375 -39.9375 26.125 C-37.5305055 16.32509383 -29.77510761 9.38948266 -21.66015625 3.953125 C-14.67982697 0.30408356 -7.71809144 0.08029224 0 0 Z " fill="#D3D3D3" transform="translate(648.0625,60.4375)"/>
<path d="M0 0 C1.02867187 -0.01160156 2.05734375 -0.02320313 3.1171875 -0.03515625 C16.00549071 0.01403575 25.70452457 4.78380461 35.1796875 13.3671875 C41.2132868 20.02227342 45 30.44725506 45 39.375 C15.96 39.375 -13.08 39.375 -43 39.375 C-41.84682172 27.84321715 -38.67466881 17.64215226 -29.7421875 9.76171875 C-29.16726563 9.30410156 -28.59234375 8.84648438 -28 8.375 C-27.16855469 7.67310547 -27.16855469 7.67310547 -26.3203125 6.95703125 C-18.37152144 0.71155256 -9.8375064 -0.11094932 0 0 Z " fill="#D4D4D3" transform="translate(778,60.625)"/>
<path d="M0 0 C4.62 0 9.24 0 14 0 C14 37.95 14 75.9 14 115 C9.38 115 4.76 115 0 115 C0 77.05 0 39.1 0 0 Z " fill="#262523" transform="translate(321,50)"/>
<path d="M0 0 C4.95 0 9.9 0 15 0 C15.14291379 3.9326813 15.28550027 7.86537233 15.42724609 11.7980957 C15.49930096 13.79314504 15.57191337 15.78817421 15.64453125 17.78320312 C15.68964844 19.03681641 15.73476563 20.29042969 15.78125 21.58203125 C15.8440918 23.31803589 15.8440918 23.31803589 15.90820312 25.08911133 C15.97031439 27.05866602 16 29.02946619 16 31 C15.34 31 14.68 31 14 31 C14 21.43 14 11.86 14 2 C10.04 2 6.08 2 2 2 C2 53.48 2 104.96 2 158 C5.96 158 9.92 158 14 158 C14 134.24 14 110.48 14 86 C14.66 86.33 15.32 86.66 16 87 C15.67 110.76 15.34 134.52 15 159 C10.05 159 5.1 159 0 159 C0 106.53 0 54.06 0 0 Z " fill="#565553" transform="translate(853,49)"/>
<path d="M0 0 C4.62 0 9.24 0 14 0 C14.33 8.58 14.66 17.16 15 26 C15.66 24.68 16.32 23.36 17 22 C18 24 18 24 17.0625 27.125 C16.5365625 28.548125 16.5365625 28.548125 16 30 C14.68 30 13.36 30 12 30 C12 20.76 12 11.52 12 2 C8.37 2 4.74 2 1 2 C1 39.29 1 76.58 1 115 C4.96 115 8.92 115 13 115 C13 92.23 13 69.46 13 46 C13.33 46 13.66 46 14 46 C14 69.1 14 92.2 14 116 C9.38 116 4.76 116 0 116 C0 77.72 0 39.44 0 0 Z " fill="#393835" transform="translate(356,49)"/>
<path d="M0 0 C28.05 0 56.1 0 85 0 C84.67 0.66 84.34 1.32 84 2 C83.05088242 1.99777939 82.10176483 1.99555878 81.12388611 1.99327087 C72.16393686 1.97296813 63.2039923 1.95799352 54.24402523 1.94818783 C49.6380155 1.94297711 45.0320244 1.93591243 40.42602539 1.92456055 C35.97806682 1.91366721 31.53012612 1.90770952 27.08215523 1.90512276 C25.38816611 1.90328011 23.69417793 1.89968193 22.00019646 1.89426994 C19.6211221 1.88697391 17.24212091 1.88601266 14.86303711 1.88647461 C14.16819717 1.88287933 13.47335724 1.87928406 12.75746155 1.87557983 C8.39532901 1.88469976 4.29127649 2.2969427 0 3 C0 2.01 0 1.02 0 0 Z M-2 3 C-1.34 3.33 -0.68 3.66 0 4 C-0.37511719 4.4125 -0.75023438 4.825 -1.13671875 5.25 C-4.95796035 9.56213158 -8.08513088 14.03440438 -11 19 C-11.33 18.01 -11.66 17.02 -12 16 C-10.41796875 13.37109375 -10.41796875 13.37109375 -8.1875 10.4375 C-7.45917969 9.46683594 -6.73085938 8.49617188 -5.98046875 7.49609375 C-4 5 -4 5 -2 3 Z " fill="#D6E0EA" transform="translate(68,31)"/>
<path d="M0 0 C3.875 1.75 3.875 1.75 5 4 C1.4702166 7.52536124 -1.0762428 8.46125014 -6.05755615 8.50878906 C-6.8406012 8.495979 -7.62364624 8.48316895 -8.43041992 8.4699707 C-9.68490685 8.4732563 -9.68490685 8.4732563 -10.96473694 8.47660828 C-13.72038734 8.478914 -16.4749614 8.45269823 -19.23046875 8.42578125 C-21.14666912 8.42085677 -23.0628743 8.41755827 -24.9790802 8.41581726 C-28.98970971 8.40818358 -32.99998155 8.38763855 -37.01049805 8.35668945 C-42.15895608 8.31703496 -47.30718189 8.2990672 -52.45577526 8.28938007 C-57.35987138 8.27942293 -62.26391046 8.25952722 -67.16796875 8.23828125 C-68.57701005 8.23318763 -68.57701005 8.23318763 -70.01451683 8.2279911 C-72.66233543 8.21645124 -75.31000473 8.19793761 -77.95776367 8.17700195 C-78.74688141 8.17431305 -79.53599915 8.17162415 -80.34902954 8.16885376 C-85.77017098 8.11491451 -85.77017098 8.11491451 -88 7 C-87.67 6.34 -87.34 5.68 -87 5 C-86.34 5.33 -85.68 5.66 -85 6 C-82.35616229 6.10869551 -79.73826189 6.15731901 -77.09375 6.16113281 C-75.86918091 6.16858017 -75.86918091 6.16858017 -74.61987305 6.17617798 C-71.91324021 6.19081066 -69.20666593 6.19760243 -66.5 6.203125 C-64.62434893 6.20887429 -62.74869789 6.21463205 -60.87304688 6.22039795 C-56.93879929 6.23091023 -53.00457216 6.23675182 -49.0703125 6.24023438 C-44.01921024 6.24572824 -38.96837632 6.26977427 -33.9173584 6.29820633 C-30.04328611 6.31678933 -26.16927912 6.32203592 -22.29516602 6.32357025 C-20.43235808 6.32660571 -18.56955152 6.3346641 -16.70678711 6.34775543 C-14.10639732 6.36473026 -11.50667205 6.36295727 -8.90625 6.35644531 C-8.13112061 6.3656601 -7.35599121 6.37487488 -6.55737305 6.3843689 C-4.19826886 6.40115516 -4.19826886 6.40115516 -1 6 C-0.34 5.01 0.32 4.02 1 3 C0.505 1.515 0.505 1.515 0 0 Z " fill="#D7DDEE" transform="translate(153,176)"/>
<path d="M0 0 C0.66 0 1.32 0 2 0 C3.06775224 1.96466413 4.06553465 3.96855359 5 6 C4.67 6.66 4.34 7.32 4 8 C3.34 8 2.68 8 2 8 C1.67 29.45 1.34 50.9 1 73 C-3.95 73 -8.9 73 -14 73 C-14 72.67 -14 72.34 -14 72 C-9.38 72 -4.76 72 0 72 C0 48.24 0 24.48 0 0 Z " fill="#B6B7B3" transform="translate(868,136)"/>
<path d="M0 0 C0.33 0 0.66 0 1 0 C1 18.81 1 37.62 1 57 C1.99 57.33 2.98 57.66 4 58 C3.01 58.495 3.01 58.495 2 59 C2 59.66 2 60.32 2 61 C1.34 61 0.68 61 0 61 C0 40.87 0 20.74 0 0 Z " fill="#C6C5C3" transform="translate(497,47)"/>
<path d="M0 0 C2.35424675 -0.02726927 4.70816962 -0.04696719 7.0625 -0.0625 C8.37347656 -0.07410156 9.68445313 -0.08570312 11.03515625 -0.09765625 C16.7515605 0.04314188 21.77207216 0.62366916 27 3 C27 3.66 27 4.32 27 5 C29.31 5.33 31.62 5.66 34 6 C34.495 7.485 34.495 7.485 35 9 C31.58978257 8.21302675 28.31114834 7.12880057 25 6 C25 5.34 25 4.68 25 4 C19.55547082 2.92375586 14.15417411 2.67807034 8.625 2.4375 C7.69816406 2.39431641 6.77132812 2.35113281 5.81640625 2.30664062 C3.54439706 2.20123814 1.27229075 2.09911394 -1 2 C-0.67 1.34 -0.34 0.68 0 0 Z " fill="#BDCDE7" transform="translate(204,28)"/>
<path d="M0 0 C4.62 0 9.24 0 14 0 C14.33 8.58 14.66 17.16 15 26 C15.66 24.68 16.32 23.36 17 22 C18 24 18 24 17.0625 27.125 C16.5365625 28.548125 16.5365625 28.548125 16 30 C15.01 29.67 14.02 29.34 13 29 C13 19.76 13 10.52 13 1 C8.71 1 4.42 1 0 1 C0 0.67 0 0.34 0 0 Z " fill="#595856" transform="translate(356,49)"/>
<path d="M0 0 C6.93 0 13.86 0 21 0 C19.75453595 3.73639216 18.36595047 4.18756513 15 6 C15 5.01 15 4.02 15 3 C10.05 2.67 5.1 2.34 0 2 C0 1.34 0 0.68 0 0 Z " fill="#585855" transform="translate(571,49)"/>
<path d="M0 0 C1 2 1 2 0.25 4.5625 C-1 7 -1 7 -4 8 C-4.763125 8.825 -5.52625 9.65 -6.3125 10.5 C-9.32775713 13.30489036 -10.96692616 13.71862276 -15 14 C-12.0202619 10.85790438 -8.61998658 8.39689 -5.15625 5.81640625 C-3.04548759 4.03831835 -1.55531661 2.26817006 0 0 Z " fill="#ABA8A6" transform="translate(696,146)"/>
<path d="M0 0 C0.33 0.66 0.66 1.32 1 2 C-0.14453125 4.20703125 -0.14453125 4.20703125 -1.8125 6.8125 C-3.48012263 9.43078636 -4.92064303 11.78827927 -6.01171875 14.69921875 C-7 17 -7 17 -10 19 C-9.731875 18.34 -9.46375 17.68 -9.1875 17 C-7.74294953 13.35060933 -6.37128822 9.67754567 -5 6 C-4.34 6 -3.68 6 -3 6 C-2.814375 5.071875 -2.814375 5.071875 -2.625 4.125 C-2 2 -2 2 0 0 Z " fill="#D5DFED" transform="translate(42,73)"/>
<path d="M0 0 C3.15268314 4.72902471 5.52668153 9.20650322 5 15 C5.66 15 6.32 15 7 15 C7 17.31 7 19.62 7 22 C2.61061779 15.41592669 0 7.94199409 0 0 Z " fill="#A2BBE9" transform="translate(245,47)"/>
<path d="M0 0 C-1.24735567 0.6509259 -2.49801832 1.29551669 -3.75 1.9375 C-4.44609375 2.29714844 -5.1421875 2.65679687 -5.859375 3.02734375 C-10.29485585 5.0427356 -14.14015613 5.09345854 -19 5 C-16.01243632 3.00829088 -13.44575614 1.97092021 -10.0625 0.8125 C-9.02222656 0.44769531 -7.98195312 0.08289063 -6.91015625 -0.29296875 C-4.04543948 -0.98896034 -2.71018643 -1.02529944 0 0 Z " fill="#C3D2E7" transform="translate(226,182)"/>
<path d="M0 0 C-0.8125 1.9375 -0.8125 1.9375 -2 4 C-2.99 4.33 -3.98 4.66 -5 5 C-6.58558381 6.63502936 -6.58558381 6.63502936 -8.0625 8.5625 C-9.59765625 10.50390625 -9.59765625 10.50390625 -11 12 C-11.66 12 -12.32 12 -13 12 C-11.50198648 8.38522825 -9.42462583 6.31379537 -6.5 3.75 C-5.7059375 3.04359375 -4.911875 2.3371875 -4.09375 1.609375 C-2 0 -2 0 0 0 Z " fill="#AFADAC" transform="translate(626,66)"/>
<path d="M0 0 C0 0.99 0 1.98 0 3 C-0.556875 3.04125 -1.11375 3.0825 -1.6875 3.125 C-5.15543888 4.43719309 -6.68848944 7.16839957 -9 10 C-11.3125 11.375 -11.3125 11.375 -13 12 C-11.50198648 8.38522825 -9.42462583 6.31379537 -6.5 3.75 C-5.7059375 3.04359375 -4.911875 2.3371875 -4.09375 1.609375 C-2 0 -2 0 0 0 Z " fill="#AAAAA8" transform="translate(390,66)"/>
<path d="M0 0 C0.99 0.33 1.98 0.66 3 1 C1.68 1.33 0.36 1.66 -1 2 C-1 2.66 -1 3.32 -1 4 C-5.29 6.31 -9.58 8.62 -14 11 C-13.67 10.01 -13.34 9.02 -13 8 C-10.9375 7.3125 -10.9375 7.3125 -9 7 C-9 6.01 -9 5.02 -9 4 C-8.443125 3.896875 -7.88625 3.79375 -7.3125 3.6875 C-4.85481813 3.07122077 -4.85481813 3.07122077 -2.4375 1.375 C-1.633125 0.92125 -0.82875 0.4675 0 0 Z " fill="#BFDBFD" transform="translate(160,46)"/>
<path d="M0 0 C0.66 0.33 1.32 0.66 2 1 C1.38125 1.0825 0.7625 1.165 0.125 1.25 C-2.17381462 1.80607909 -2.17381462 1.80607909 -3.1875 4 C-3.455625 4.66 -3.72375 5.32 -4 6 C-5 7 -5 7 -8.5625 7.0625 C-9.696875 7.041875 -10.83125 7.02125 -12 7 C-12 6.34 -12 5.68 -12 5 C-10.7625 4.54625 -9.525 4.0925 -8.25 3.625 C-5.93776196 2.76710249 -3.81098275 1.90051724 -1.625 0.75 C-1.08875 0.5025 -0.5525 0.255 0 0 Z " fill="#86AEEB" transform="translate(186,34)"/>
<path d="M0 0 C0.66 0.33 1.32 0.66 2 1 C-2.97527683 11.0987534 -2.97527683 11.0987534 -8 13 C-8.66 12.67 -9.32 12.34 -10 12 C-9.0925 11.319375 -8.185 10.63875 -7.25 9.9375 C-3.77393779 7.07098424 -2.03435118 3.99045809 0 0 Z " fill="#AEC7E1" transform="translate(263,152)"/>
<path d="M0 0 C0.33 0.99 0.66 1.98 1 3 C-2.99613521 6.71069698 -5.37082652 8.59791618 -11 9 C-9.948125 8.1646875 -9.948125 8.1646875 -8.875 7.3125 C-5.88655739 4.90875268 -2.94059762 2.46189568 0 0 Z " fill="#ADADAA" transform="translate(954,153)"/>
<path d="M0 0 C0.66 0.33 1.32 0.66 2 1 C-0.97 4.3 -3.94 7.6 -7 11 C-7.99 10.67 -8.98 10.34 -10 10 C-6.7 6.7 -3.4 3.4 0 0 Z " fill="#474845" transform="translate(744,56)"/>
<path d="M0 0 C1.39864092 3.17872935 0.89282517 4.30111022 -0.3125 7.6875 C-2 11 -2 11 -4 12 C-4 9.69 -4 7.38 -4 5 C-3.34 5 -2.68 5 -2 5 C-1.34 3.35 -0.68 1.7 0 0 Z " fill="#82ABEC" transform="translate(271,135)"/>
<path d="M0 0 C0.33 0.66 0.66 1.32 1 2 C0.07421875 4.09375 0.07421875 4.09375 -1.3125 6.5 C-1.98732422 7.69109375 -1.98732422 7.69109375 -2.67578125 8.90625 C-4 11 -4 11 -6 13 C-6.125 10.625 -6.125 10.625 -6 8 C-5.34 7.34 -4.68 6.68 -4 6 C-3.67 5.154375 -3.34 4.30875 -3 3.4375 C-2 1 -2 1 0 0 Z " fill="#D7DEEC" transform="translate(31,92)"/>
<path d="M0 0 C0.33 0.66 0.66 1.32 1 2 C-0.14453125 4.56640625 -0.14453125 4.56640625 -1.8125 7.5625 C-2.35519531 8.55378906 -2.89789063 9.54507813 -3.45703125 10.56640625 C-5 13 -5 13 -7 14 C-6.4603916 10.11481952 -5.4553502 8.02196948 -3 5 C-1.98343919 3.34338239 -0.97934924 1.67888441 0 0 Z " fill="#D6DEEB" transform="translate(55,50)"/>
<path d="M0 0 C2.76276177 0.52268466 5.3260876 1.10869587 8 2 C8 2.66 8 3.32 8 4 C8.99 4.33 9.98 4.66 11 5 C10.01 5.495 10.01 5.495 9 6 C7.08984375 5.29296875 7.08984375 5.29296875 4.9375 4.1875 C4.22464844 3.83042969 3.51179687 3.47335938 2.77734375 3.10546875 C1 2 1 2 0 0 Z " fill="#8DB5EC" transform="translate(156,177)"/>
<path d="M0 0 C0.66 0.33 1.32 0.66 2 1 C0.71034824 2.37562854 -0.62689293 3.70766393 -2 5 C-2.66 5 -3.32 5 -4 5 C-4.66 6.32 -5.32 7.64 -6 9 C-6.99 8.67 -7.98 8.34 -9 8 C-6.03 5.36 -3.06 2.72 0 0 Z " fill="#ACACAA" transform="translate(754,66)"/>
<path d="M0 0 C1.093125 0.0825 2.18625 0.165 3.3125 0.25 C0.87409764 2.68840236 -1.53990898 3.87292893 -4.6875 5.25 C-5.3475 4.92 -6.0075 4.59 -6.6875 4.25 C-4.79150483 0.68106792 -4.16790733 0.28256999 0 0 Z " fill="#7EA9E9" transform="translate(230.6875,175.75)"/>
<path d="M0 0 C3 3 3 3 3.07421875 6.57421875 C2.96149977 7.94673808 2.83199844 9.31796172 2.6875 10.6875 C2.62626953 11.38939453 2.56503906 12.09128906 2.50195312 12.81445312 C2.34897376 14.5442967 2.17637398 16.27238497 2 18 C1.67 18 1.34 18 1 18 C0.67 12.06 0.34 6.12 0 0 Z " fill="#B2B1B0" transform="translate(837,94)"/>
<path d="M0 0 C4.62 0 9.24 0 14 0 C10.71508627 2.18994248 9.16904361 2.35277339 5.3125 2.625 C3.82169922 2.73714844 3.82169922 2.73714844 2.30078125 2.8515625 C1.16189453 2.92503906 1.16189453 2.92503906 0 3 C0 2.01 0 1.02 0 0 Z " fill="#85ADF0" transform="translate(203,183)"/>
<path d="M0 0 C3.3125 -0.1875 3.3125 -0.1875 7 0 C7.99 0.99 8.98 1.98 10 3 C7.03 2.67 4.06 2.34 1 2 C0.67 2.99 0.34 3.98 0 5 C-0.66 5 -1.32 5 -2 5 C-1.34 3.35 -0.68 1.7 0 0 Z " fill="#6D6E6D" transform="translate(822,125)"/>
<path d="M0 0 C0 3.29223784 -0.50518132 5.08510357 -2 8 C-4.125 9.3125 -4.125 9.3125 -6 10 C-4.6302836 6.00499382 -2.74277578 3.19990508 0 0 Z " fill="#5C5C59" transform="translate(733,67)"/>
<path d="M0 0 C0 0.99 0 1.98 0 3 C-4.43076923 5.09230769 -4.43076923 5.09230769 -7.3125 4.625 C-7.869375 4.41875 -8.42625 4.2125 -9 4 C-2.25 0 -2.25 0 0 0 Z " fill="#8DB2EC" transform="translate(173,41)"/>
<path d="M0 0 C0.66 0 1.32 0 2 0 C3.06775224 1.96466413 4.06553465 3.96855359 5 6 C4.67 6.66 4.34 7.32 4 8 C3.01 8 2.02 8 1 8 C0.67 5.36 0.34 2.72 0 0 Z " fill="#B0AEAC" transform="translate(868,136)"/>
<path d="M0 0 C0.99 0 1.98 0 3 0 C1.57816101 2.84367797 -0.4405878 4.15484237 -3 6 C-5.3125 6.75 -5.3125 6.75 -7 7 C-4.66666667 4.66666667 -2.33333333 2.33333333 0 0 Z " fill="#A1A19F" transform="translate(525,102)"/>
<path d="M0 0 C0.66 0.33 1.32 0.66 2 1 C-1.32307692 5.8 -1.32307692 5.8 -4.75 6.8125 C-5.4925 6.874375 -6.235 6.93625 -7 7 C-4.66666667 4.66666667 -2.33333333 2.33333333 0 0 Z " fill="#ACAAA9" transform="translate(566,70)"/>
<path d="M0 0 C0.66 0.33 1.32 0.66 2 1 C-2.30769231 5.92307692 -2.30769231 5.92307692 -5.8125 6.3125 C-6.8953125 6.1578125 -6.8953125 6.1578125 -8 6 C-4.25 3 -4.25 3 -2 3 C-2 2.34 -2 1.68 -2 1 C-1.34 0.67 -0.68 0.34 0 0 Z " fill="#83ABF6" transform="translate(161,47)"/>
<path d="M0 0 C2.475 0.99 2.475 0.99 5 2 C5 3.98 5 5.96 5 8 C2.20127563 5.47211993 0.54226981 3.79588866 0 0 Z " fill="#AAC0E7" transform="translate(240,39)"/>
<path d="M0 0 C0.33 0 0.66 0 1 0 C1 2.31 1 4.62 1 7 C1.99 7.33 2.98 7.66 4 8 C3.01 8.495 3.01 8.495 2 9 C2 9.66 2 10.32 2 11 C1.34 11 0.68 11 0 11 C0 7.37 0 3.74 0 0 Z " fill="#C0BEBC" transform="translate(497,97)"/>
<path d="M0 0 C-1.01454452 2.5363613 -1.6853556 3.79351461 -4 5.3125 C-4.66 5.539375 -5.32 5.76625 -6 6 C-6.66 5.67 -7.32 5.34 -8 5 C-2.25 0 -2.25 0 0 0 Z " fill="#B1B1AF" transform="translate(587,55)"/>
<path d="M0 0 C0.33 0.66 0.66 1.32 1 2 C-3.75 6.875 -3.75 6.875 -6 8 C-4.55746343 4.63408134 -2.66735273 2.48952921 0 0 Z " fill="#504E4C" transform="translate(383,58)"/>
<path d="M0 0 C0.33 0.66 0.66 1.32 1 2 C-1.97 4.475 -1.97 4.475 -5 7 C-5.66 6.34 -6.32 5.68 -7 5 C-4.69 3.35 -2.38 1.7 0 0 Z " fill="#88AFF7" transform="translate(150,54)"/>
<path d="M0 0 C-2.97 1.32 -5.94 2.64 -9 4 C-9.66 3.34 -10.32 2.68 -11 2 C-4.5 -1.125 -4.5 -1.125 0 0 Z " fill="#51524E" transform="translate(763,50)"/>
</svg>
