<?xml version="1.0" encoding="UTF-8"?>
<svg version="1.1" xmlns="http://www.w3.org/2000/svg" width="983" height="254">
<path d="M0 0 C6.99452842 6.97908796 9.3349507 18.00918189 12.30078125 27.17578125 C16.04773169 38.75198095 16.04773169 38.75198095 21.76953125 49.453125 C31.19969432 64.23346222 37.57804601 76.77783566 35.33203125 94.828125 C32.42202949 107.72078181 26.05422649 119.12741933 15.76953125 127.453125 C15.02316406 128.06027344 14.27679688 128.66742188 13.5078125 129.29296875 C-8.0905635 145.46424857 -34.42834845 153.48581925 -61.35546875 149.765625 C-67.04395252 148.7250487 -72.15112751 146.63067428 -77.41796875 144.28125 C-80.84022755 143.27358491 -81.21929719 143.84004129 -84.23046875 145.453125 C-92.47370945 147.97135886 -100.97906542 147.74676606 -109.51171875 147.71875 C-110.97562728 147.72010093 -112.43953537 147.72204501 -113.90344238 147.72454834 C-116.95601721 147.72747948 -120.00847415 147.72326727 -123.06103516 147.71386719 C-126.9474959 147.70247382 -130.83368028 147.70904415 -134.72013092 147.72101212 C-137.73840364 147.72828539 -140.75661229 147.72591787 -143.77488708 147.72075653 C-145.20682306 147.7194351 -146.63876511 147.72101405 -148.07069397 147.72571564 C-168.14138788 147.77717516 -168.14138788 147.77717516 -173.47021484 143.76806641 C-173.93508301 143.07890137 -174.39995117 142.38973633 -174.87890625 141.6796875 C-175.42901367 140.8743457 -175.97912109 140.06900391 -176.54589844 139.23925781 C-179.80432269 133.85010744 -182.87879498 128.37693473 -185.85546875 122.828125 C-189.66805898 115.75743358 -193.45849101 108.92239836 -198.23046875 102.453125 C-198.53984375 101.504375 -198.84921875 100.555625 -199.16796875 99.578125 C-200.16639668 96.64157226 -201.2423453 94.79421287 -202.98046875 92.265625 C-213.35724096 77.00716932 -213.35724096 77.00716932 -212.80859375 68.19140625 C-211.71398323 63.00679832 -209.00674928 58.90229251 -206.23046875 54.453125 C-204.97520875 52.22691603 -203.72549972 49.99757077 -202.48046875 47.765625 C-199.18675449 41.97018432 -195.66526115 36.33642621 -192.08959961 30.71191406 C-188.86310284 25.5875143 -185.92885019 20.33781185 -183.04296875 15.015625 C-179.14798956 7.85589274 -175.02875833 1.25141458 -169.23046875 -4.546875 C-166.58809995 -4.76630651 -164.0487676 -4.86143291 -161.40356445 -4.86914062 C-160.59521652 -4.87907043 -159.78686859 -4.88900024 -158.95402527 -4.89923096 C-156.27139918 -4.92851318 -153.58900987 -4.9420867 -150.90625 -4.953125 C-149.04257703 -4.96462798 -147.17890414 -4.97614344 -145.31523132 -4.9876709 C-141.40195613 -5.00870415 -137.48876324 -5.02037965 -133.57543945 -5.02734375 C-128.56930917 -5.03829431 -123.56427216 -5.08629974 -118.55848408 -5.14328766 C-114.70563123 -5.18061077 -110.85303931 -5.1909554 -107.00002098 -5.1940155 C-105.15525547 -5.20005766 -103.31049396 -5.21607848 -101.46590614 -5.24238586 C-98.87788603 -5.27664984 -96.29250301 -5.27271654 -93.7043457 -5.25976562 C-92.94719269 -5.27819519 -92.19003967 -5.29662476 -91.40994263 -5.31561279 C-86.17873719 -5.23395193 -83.45784906 -3.71283458 -79.60418987 -0.21273041 C-77.36974117 2.49689413 -76.84712317 5.0272671 -76.23046875 8.453125 C-75.6070459 8.14084961 -74.98362305 7.82857422 -74.34130859 7.50683594 C-51.86855111 -3.68192226 -23.65967698 -16.40846249 0 0 Z " fill="#6DA3FA" transform="translate(235.23046875,34.546875)"/>
<path d="M0 0 C0.80834793 -0.00992981 1.61669586 -0.01985962 2.44953918 -0.03009033 C5.13216528 -0.05937255 7.81455458 -0.07294607 10.49731445 -0.08398438 C12.36098742 -0.09548735 14.22466031 -0.10700282 16.08833313 -0.11853027 C20.00160832 -0.13956353 23.91480121 -0.15123902 27.828125 -0.15820312 C32.83425528 -0.16915369 37.83929229 -0.21715911 42.84508038 -0.27414703 C46.69793322 -0.31147014 50.55052514 -0.32181477 54.40354347 -0.32487488 C56.24830898 -0.33091704 58.09307049 -0.34693786 59.93765831 -0.37324524 C62.52567842 -0.40750922 65.11106144 -0.40357591 67.69921875 -0.390625 C68.45637177 -0.40905457 69.21352478 -0.42748413 69.99362183 -0.44647217 C75.22489719 -0.36481021 77.92136788 1.14509606 81.75054646 4.67472076 C84.71878458 8.11242633 86.1730957 11.7425014 86.1730957 16.32226562 C84.115531 17.86543915 82.11854059 19.19056162 79.9230957 20.50976562 C78.63229099 21.31374693 77.34193392 22.11844732 76.05200195 22.92382812 C75.39989746 23.32633789 74.74779297 23.72884766 74.07592773 24.14355469 C66.47438819 28.85233489 59.40198448 33.67570489 52.9152832 39.85351562 C51.1730957 41.32226562 51.1730957 41.32226562 49.1730957 41.32226562 C48.9152832 41.85335937 48.6574707 42.38445312 48.3918457 42.93164062 C47.4731676 44.73366307 46.5062731 46.5112229 45.5168457 48.27539062 C44.9084082 49.36335938 44.2999707 50.45132813 43.6730957 51.57226562 C43.0646582 52.64992187 42.4562207 53.72757813 41.8293457 54.83789062 C38.13452025 62.61096682 37.83413777 69.72014422 37.8605957 78.19726562 C37.84448242 79.22207031 37.82836914 80.246875 37.81176758 81.30273438 C37.80741929 88.14693674 38.81079373 93.90511125 41.1730957 100.32226562 C41.51211914 101.25941406 41.85114258 102.1965625 42.20043945 103.16210938 C44.02864111 107.37560419 45.33801973 109.6856509 49.1730957 112.32226562 C50.11832907 114.0107772 51.06262624 115.69982589 52.00024414 117.39257812 C53.92369771 120.5572278 56.34646065 123.24675981 58.7980957 126.00976562 C63.9673259 131.86595931 63.9673259 131.86595931 65.1965332 134.59179688 C66.62820371 137.12871701 68.47640044 137.37743809 71.1730957 138.32226562 C72.80469919 139.27684446 74.41033811 140.27731863 75.9855957 141.32226562 C76.77579102 141.83789062 77.56598633 142.35351562 78.38012695 142.88476562 C78.97180664 143.35914063 79.56348633 143.83351562 80.1730957 144.32226562 C80.1730957 144.98226562 80.1730957 145.64226562 80.1730957 146.32226562 C80.8330957 146.32226562 81.4930957 146.32226562 82.1730957 146.32226562 C80.88778683 148.89288338 79.78327045 149.20495022 77.1730957 150.32226562 C68.92985501 152.84049948 60.42449903 152.61590668 51.8918457 152.58789062 C50.42793717 152.58924156 48.96402908 152.59118564 47.50012207 152.59368896 C44.44754725 152.59662011 41.3950903 152.59240789 38.3425293 152.58300781 C34.45606855 152.57161445 30.56988418 152.57818478 26.68343353 152.59015274 C23.66516081 152.59742601 20.64695216 152.5950585 17.62867737 152.58989716 C16.1967414 152.58857573 14.76479935 152.59015468 13.33287048 152.59485626 C-6.73782343 152.64631578 -6.73782343 152.64631578 -12.06665039 148.63720703 C-12.53151855 147.94804199 -12.99638672 147.25887695 -13.4753418 146.54882812 C-14.02544922 145.74348633 -14.57555664 144.93814453 -15.14233398 144.10839844 C-18.40075824 138.71924806 -21.47523052 133.24607536 -24.4519043 127.69726562 C-28.26449453 120.62657421 -32.05492656 113.79153898 -36.8269043 107.32226562 C-37.1362793 106.37351562 -37.4456543 105.42476563 -37.7644043 104.44726562 C-38.76283223 101.51071289 -39.83878084 99.66335349 -41.5769043 97.13476562 C-51.9536765 81.87630994 -51.9536765 81.87630994 -51.4050293 73.06054688 C-50.31041878 67.87593895 -47.60318483 63.77143314 -44.8269043 59.32226562 C-43.5716443 57.09605666 -42.32193527 54.86671139 -41.0769043 52.63476562 C-37.78319004 46.83932495 -34.26169669 41.20556684 -30.68603516 35.58105469 C-27.45953838 30.45665492 -24.52528574 25.20695247 -21.6394043 19.88476562 C-10.83903785 0.03158327 -10.83903785 0.03158327 0 0 Z " fill="#D5E3FD" transform="translate(73.826904296875,29.677734375)"/>
<path d="M0 0 C11.01960453 10.44312622 16.69624791 25.58767996 17.27734375 40.58984375 C17.5496054 59.38786498 16.21712407 76.20253519 4.19140625 91.52734375 C3.44890625 92.29046875 2.70640625 93.05359375 1.94140625 93.83984375 C1.28140625 93.83984375 0.62140625 93.83984375 -0.05859375 93.83984375 C-0.55359375 95.32484375 -0.55359375 95.32484375 -1.05859375 96.83984375 C-3.17578125 98.5234375 -3.17578125 98.5234375 -5.93359375 100.27734375 C-6.81789063 100.85355469 -7.7021875 101.42976563 -8.61328125 102.0234375 C-17.54126302 106.73036667 -25.35660425 108.51488023 -35.43359375 108.33984375 C-36.52760498 108.33065918 -37.62161621 108.32147461 -38.7487793 108.31201172 C-48.45241284 108.09404985 -56.39760794 106.32175249 -65.05859375 101.83984375 C-65.05859375 101.17984375 -65.05859375 100.51984375 -65.05859375 99.83984375 C-65.63609375 99.73671875 -66.21359375 99.63359375 -66.80859375 99.52734375 C-69.41520533 98.7308791 -71.03212485 97.64919098 -73.05859375 95.83984375 C-73.05859375 95.17984375 -73.05859375 94.51984375 -73.05859375 93.83984375 C-74.54359375 93.34484375 -74.54359375 93.34484375 -76.05859375 92.83984375 C-76.05859375 92.17984375 -76.05859375 91.51984375 -76.05859375 90.83984375 C-76.71859375 90.83984375 -77.37859375 90.83984375 -78.05859375 90.83984375 C-79.70859375 88.19984375 -81.35859375 85.55984375 -83.05859375 82.83984375 C-83.38859375 104.28984375 -83.71859375 125.73984375 -84.05859375 147.83984375 C-87.28256567 148.91450106 -89.73330161 149.00676178 -93.12109375 149.02734375 C-94.18457031 149.04152344 -95.24804688 149.05570313 -96.34375 149.0703125 C-99.05859375 148.83984375 -99.05859375 148.83984375 -101.05859375 146.83984375 C-101.28907204 144.14182091 -101.28907204 144.14182091 -101.26113892 140.63900757 C-101.25876421 139.996181 -101.25638951 139.35335443 -101.25394285 138.69104826 C-101.24348884 136.52741913 -101.21860732 134.36419289 -101.19384766 132.20068359 C-101.18342625 130.65361581 -101.17389015 129.10654185 -101.16517639 127.5594635 C-101.13894958 123.35093389 -101.10028469 119.14259821 -101.05945253 114.93418837 C-101.01890467 110.53931717 -100.98970399 106.14437127 -100.95932007 101.74942017 C-100.90002252 93.42311607 -100.8304615 85.09693034 -100.75724924 76.77073824 C-100.6744111 67.29330005 -100.60295953 57.81578685 -100.53248334 48.33824992 C-100.38722582 28.83866936 -100.22720349 9.3392354 -100.05859375 -10.16015625 C-94.77859375 -10.16015625 -89.49859375 -10.16015625 -84.05859375 -10.16015625 C-83.72859375 -2.90015625 -83.39859375 4.35984375 -83.05859375 11.83984375 C-81.94484375 10.35484375 -80.83109375 8.86984375 -79.68359375 7.33984375 C-77.78515625 4.80859375 -77.78515625 4.80859375 -76.05859375 2.83984375 C-75.39859375 2.83984375 -74.73859375 2.83984375 -74.05859375 2.83984375 C-73.83171875 2.26234375 -73.60484375 1.68484375 -73.37109375 1.08984375 C-69.64004345 -5.30624247 -61.46090112 -8.7777892 -54.6328125 -10.921875 C-35.56279137 -15.10363702 -15.51176349 -12.3154001 0 0 Z M-74.0859375 17.28515625 C-82.8827301 28.67743815 -85.03220606 40.77655487 -84.05859375 54.83984375 C-82.3533674 66.50416519 -77.69035911 76.58954811 -68.4765625 84.12109375 C-56.66457061 92.51734 -43.28317284 94.56558653 -29.03515625 92.375 C-22.65065988 90.86382369 -16.97264405 88.25708897 -12.05859375 83.83984375 C-10.81273105 81.75235948 -10.81273105 81.75235948 -10.05859375 79.83984375 C-9.39859375 79.83984375 -8.73859375 79.83984375 -8.05859375 79.83984375 C1.56123582 67.48680355 2.26067423 52.87711095 0.94140625 37.83984375 C0.08966163 33.23309599 -1.18517945 29.12719844 -3.05859375 24.83984375 C-3.60193359 23.58300781 -3.60193359 23.58300781 -4.15625 22.30078125 C-8.67196547 13.14689022 -16.60949568 7.3629864 -26.05859375 3.83984375 C-29.07817382 3.14301758 -31.9656727 2.9141163 -35.05859375 2.83984375 C-36.26322266 2.78183594 -36.26322266 2.78183594 -37.4921875 2.72265625 C-51.61032755 2.32620302 -64.33180211 6.76980884 -74.0859375 17.28515625 Z " fill="#1F1F1C" transform="translate(936.05859375,57.16015625)"/>
<path d="M0 0 C0.99 0.33 1.98 0.66 3 1 C3 1.66 3 2.32 3 3 C3.73605469 3.103125 4.47210937 3.20625 5.23046875 3.3125 C14.37063846 5.58142788 22.18145444 15.48128968 26.94921875 23.125 C32.82869467 33.97183188 37.42913216 48.56855895 35 61 C31.93960859 63.04026094 31.3566623 63.24931284 27.91877747 63.24050903 C26.67571083 63.24463303 26.67571083 63.24463303 25.40753174 63.24884033 C24.50194519 63.24164978 23.59635864 63.23445923 22.66333008 63.22705078 C21.70704208 63.22734283 20.75075409 63.22763489 19.76548767 63.22793579 C16.60007702 63.22654085 13.43490085 63.2109718 10.26953125 63.1953125 C8.07663603 63.19158296 5.88373915 63.18873571 3.69084167 63.18673706 C-2.08450918 63.17909599 -7.85975965 63.15944337 -13.6350708 63.1373291 C-19.52688234 63.11688091 -25.41871009 63.10773754 -31.31054688 63.09765625 C-42.87374205 63.07619798 -54.43686268 63.04205627 -66 63 C-65.53493773 64.92797661 -65.06531011 66.85485238 -64.59375 68.78125 C-64.33271484 69.85439453 -64.07167969 70.92753906 -63.80273438 72.03320312 C-62.645237 76.31115571 -60.96086103 79.71885196 -58.3125 83.25 C-57 85 -57 85 -57 87 C-56.34 87 -55.68 87 -55 87 C-54.0409375 88.051875 -54.0409375 88.051875 -53.0625 89.125 C-45.15976479 97.30747804 -34.5846874 100.01736513 -23.625 100.25 C-11.21666225 99.97554317 -3.22774286 97.79752007 5.96875 89.1484375 C10.73837003 84.06502668 13.88923557 78.19873938 17 72 C22.96564796 72.50771472 27.63809899 74.38592128 33 77 C30.92061319 86.98538877 25.58763391 95.18855411 18 102 C17.34 102 16.68 102 16 102 C16 102.66 16 103.32 16 104 C14.04611329 105.42238121 12.1266604 106.69360541 10.0625 107.9375 C9.46493896 108.2979541 8.86737793 108.6584082 8.25170898 109.02978516 C-6.71309226 117.83829554 -25.26240642 118.92614111 -41.9375 114.6875 C-49.13608884 112.46090946 -56.00061781 109.61490938 -62 105 C-62 104.34 -62 103.68 -62 103 C-62.59296875 102.73445313 -63.1859375 102.46890625 -63.796875 102.1953125 C-70.51672381 98.54943708 -74.00507447 91.52961441 -77.3125 84.9375 C-77.64991211 84.26509277 -77.98732422 83.59268555 -78.33496094 82.89990234 C-85.25650003 68.58442386 -86.51249078 50.08904552 -81.29736328 34.96191406 C-75.35101202 19.52041222 -65.71731441 7.66931556 -50.75 0.3125 C-35.13372227 -6.38019046 -15.69618811 -6.36539225 0 0 Z M-42 14 C-42.81597656 14.4021875 -43.63195312 14.804375 -44.47265625 15.21875 C-54.34868321 20.58129858 -61.09966653 28.74916631 -65.25 39.125 C-66.21035158 42.31114505 -66.21035158 42.31114505 -66 47 C-38.61 47 -11.22 47 17 47 C15.60907967 35.87263735 11.82379696 27.67990378 3.57421875 19.9765625 C-8.68963598 10.56000637 -27.68919465 6.63537503 -42 14 Z " fill="#20201C" transform="translate(788,49)"/>
<path d="M0 0 C13.45837622 10.46355136 22.45361994 22.85704761 25 40 C25.93526084 54.12947832 25.93526084 54.12947832 24 58 C13.17644173 58.02329919 2.35288954 58.04100388 -8.47068882 58.05181217 C-13.49796505 58.05700287 -18.52522397 58.0640302 -23.55249023 58.07543945 C-28.41545212 58.08640517 -33.27839747 58.09230545 -38.14137077 58.09487724 C-39.98504839 58.09670707 -41.82872524 58.10027949 -43.67239571 58.10573006 C-54.49773291 58.13642426 -65.20821147 57.90201645 -76 57 C-72.65311165 70.33324864 -68.72430662 81.12335826 -56.8046875 89.15234375 C-50.9288075 92.48564459 -45.79174951 95.04939454 -39 95 C-38.00226562 95.03609375 -37.00453125 95.0721875 -35.9765625 95.109375 C-27.09881131 95.31631559 -18.52600976 95.17413171 -11 90 C-10.34 90 -9.68 90 -9 90 C-9 89.34 -9 88.68 -9 88 C-8.29875 87.62875 -7.5975 87.2575 -6.875 86.875 C0.05889077 82.35289732 3.94736721 74.01306667 8 67 C13.77378925 67.4811491 17.95859836 69.18467181 23 72 C22.78147508 81.83362128 15.53738375 90.15855189 9 97 C8.34 97 7.68 97 7 97 C7 97.66 7 98.32 7 99 C-8.00271681 110.34411648 -25.90424143 113.73785656 -44.39453125 111.5 C-59.80533268 108.54260482 -74.13072838 100.6169335 -83.3125 87.6875 C-93.15072934 71.68992594 -95.86656215 51.9849338 -92 33.625 C-89.15041326 24.19422483 -84.23915414 14.69680709 -77 8 C-76.175 7.154375 -75.35 6.30875 -74.5 5.4375 C-55.16359965 -13.41549034 -22.28428666 -14.26194346 0 0 Z M-67.05859375 20.578125 C-72.4710673 27.33010407 -74.109521 33.49284452 -76 42 C-48.28 42 -20.56 42 8 42 C6.51102728 31.57719098 2.06451249 22.06684084 -6 15 C-6.66 15 -7.32 15 -8 15 C-8 14.34 -8 13.68 -8 13 C-10.0372203 12.01161567 -12.07999607 11.03467748 -14.125 10.0625 C-15.26195312 9.51722656 -16.39890625 8.97195312 -17.5703125 8.41015625 C-34.933979 1.27088107 -54.63221758 7.32925166 -67.05859375 20.578125 Z " fill="#20201C" transform="translate(670,54)"/>
<path d="M0 0 C2.64590014 -0.02684679 5.29153096 -0.04676357 7.9375 -0.0625 C8.69224609 -0.07087891 9.44699219 -0.07925781 10.22460938 -0.08789062 C12.14994313 -0.09652441 14.07535581 -0.05224333 16 0 C17.71794901 1.71794901 17.16922129 3.99938413 17.20532227 6.34594727 C17.22526749 7.4870546 17.24521271 8.62816193 17.26576233 9.80384827 C17.28247482 11.0454924 17.29918732 12.28713654 17.31640625 13.56640625 C17.33718735 14.83016586 17.35796844 16.09392548 17.37937927 17.39598083 C17.43383714 20.76118633 17.4840428 24.12640173 17.53222656 27.49169922 C17.58239759 30.92355901 17.63810655 34.35532831 17.69335938 37.78710938 C17.80070191 44.52466761 17.90244325 51.26229336 18 58 C18.84304688 57.278125 19.68609375 56.55625 20.5546875 55.8125 C21.66124066 54.87474308 22.76802342 53.93725706 23.875 53 C24.43058594 52.52304688 24.98617188 52.04609375 25.55859375 51.5546875 C29.7734375 48 29.7734375 48 32 48 C32 47.34 32 46.68 32 46 C33.53340507 44.76844632 35.13066189 43.61615395 36.75 42.5 C42.19452005 38.64728012 47.28615778 34.51227363 52.37109375 30.19921875 C58.58614565 25 58.58614565 25 61 25 C61 24.34 61 23.68 61 23 C62.32 22.67 63.64 22.34 65 22 C65 21.34 65 20.68 65 20 C66.61399614 18.68269433 68.29413839 17.44595733 70 16.25 C74.22309806 13.26386099 78.36677122 10.21641169 82.44140625 7.03125 C84 6 84 6 86 6 C86.33 5.01 86.66 4.02 87 3 C89.45275141 1.7736243 91.0505781 1.88584686 93.7890625 1.90234375 C94.73007812 1.90556641 95.67109375 1.90878906 96.640625 1.91210938 C97.62546875 1.92048828 98.6103125 1.92886719 99.625 1.9375 C100.61757813 1.94201172 101.61015625 1.94652344 102.6328125 1.95117188 C105.0886016 1.96297855 107.54427104 1.979446 110 2 C110 6 110 6 108.05078125 8.0078125 C107.14714844 8.70648438 106.24351562 9.40515625 105.3125 10.125 C104.30445313 10.91390625 103.29640625 11.7028125 102.2578125 12.515625 C101.17244579 13.34449795 100.08650496 14.17261965 99 15 C97.96617187 15.79921875 96.93234375 16.5984375 95.8671875 17.421875 C93.71403391 19.08523689 91.55586805 20.74181908 89.39453125 22.39453125 C73.0245584 34.43915052 73.0245584 34.43915052 58 48 C58.68964844 48.73863281 59.37929688 49.47726563 60.08984375 50.23828125 C76.59653376 68.01698689 76.59653376 68.01698689 79.05859375 73.25 C79.93549195 75.35941704 79.93549195 75.35941704 83 76 C84.76171875 77.96875 84.76171875 77.96875 86.6875 80.5 C90.11482721 84.92563959 93.72335368 89.08668858 97.53125 93.1875 C99 95 99 95 99 97 C99.84498047 97.32677734 99.84498047 97.32677734 100.70703125 97.66015625 C103.75230578 99.43959265 105.48328245 101.69406889 107.6875 104.4375 C108.86892578 105.88962891 108.86892578 105.88962891 110.07421875 107.37109375 C112 110 112 110 113 113 C114.485 113.495 114.485 113.495 116 114 C116 115.32 116 116.64 116 118 C98.67244925 119.78647423 98.67244925 119.78647423 93.125 116.078125 C91.28353967 113.72049776 89.68288872 111.32628722 88.15039062 108.75927734 C85.8940193 105.30863817 83.05093143 102.32080447 80.3125 99.25 C78.72779467 97.4359451 77.14779892 95.6178918 75.56884766 93.79882812 C74.47664784 92.54652058 73.37675645 91.30089709 72.27099609 90.06054688 C71.72137207 89.43728516 71.17174805 88.81402344 70.60546875 88.171875 C70.1055542 87.61081055 69.60563965 87.04974609 69.09057617 86.47167969 C68 85 68 85 68 83 C67.34 83 66.68 83 66 83 C65.731875 82.195625 65.46375 81.39125 65.1875 80.5625 C64.5996875 79.2940625 64.5996875 79.2940625 64 78 C63.01 77.67 62.02 77.34 61 77 C59.45270538 75.11646088 57.98294287 73.1684549 56.5625 71.1875 C53.90521683 67.49607955 51.30899482 64.12476813 48 61 C47 60 46 59 45 58 C39.93067681 61.1512009 35.42665949 64.87311356 30.83203125 68.67578125 C27.49724548 71.41260543 24.09974335 74.05856027 20.6796875 76.6875 C19.0654934 77.89390603 19.0654934 77.89390603 18 79 C17.83976438 81.88252645 17.74045971 84.74378527 17.68359375 87.62890625 C17.66281265 88.49313705 17.64203156 89.35736786 17.62062073 90.24778748 C17.55502886 93.01927445 17.49619582 95.79085921 17.4375 98.5625 C17.39432392 100.43685923 17.35070994 102.31120843 17.30664062 104.18554688 C17.19933773 108.79026336 17.09809785 113.39507858 17 118 C11.72 118 6.44 118 1 118 C0.0337556 115.10126681 -0.1235395 113.28572407 -0.12025452 110.27339172 C-0.12231651 108.81576416 -0.12231651 108.81576416 -0.12442017 107.32868958 C-0.12082489 106.26414047 -0.11722961 105.19959137 -0.11352539 104.1027832 C-0.11367142 102.98068451 -0.11381744 101.85858582 -0.1139679 100.70248413 C-0.11326998 96.98523032 -0.10548317 93.26802633 -0.09765625 89.55078125 C-0.09579164 86.9767408 -0.09436794 84.40269999 -0.09336853 81.82865906 C-0.08993757 75.74074472 -0.08205218 69.65285101 -0.07201904 63.56494445 C-0.06084421 56.63393306 -0.055344 49.70292083 -0.05032361 42.77190268 C-0.03986921 28.51459215 -0.0222783 14.25729671 0 0 Z " fill="#20201C" transform="translate(471,45)"/>
<path d="M0 0 C11.84542307 8.24703147 16.65446708 18.93490759 19.51403809 32.81771851 C20.72790573 39.93311663 20.51282667 47.13825319 20.453125 54.33203125 C20.45005883 55.96872279 20.44818924 57.60541696 20.44744873 59.24211121 C20.44288923 62.63815611 20.42861939 66.03395808 20.40625 69.42993164 C20.37767582 73.7901665 20.36700448 78.15021368 20.3625679 82.51053333 C20.35842608 85.87413919 20.34862381 89.23770703 20.33669281 92.60129356 C20.3309899 94.21092107 20.32623126 95.82055221 20.32242584 97.43018532 C20.31559219 99.66291492 20.30198168 101.89549237 20.28613281 104.12817383 C20.27930481 105.3983284 20.27247681 106.66848297 20.26544189 107.97712708 C20.125 110.8125 20.125 110.8125 19.125 111.8125 C16.61363896 111.91225032 14.13596585 111.95132183 11.625 111.9375 C10.92246094 111.94136719 10.21992188 111.94523437 9.49609375 111.94921875 C4.25161378 111.93911378 4.25161378 111.93911378 3.125 110.8125 C3.02194456 108.61160457 2.98926092 106.40739996 2.9831543 104.20410156 C2.97967987 103.51282669 2.97620544 102.82155182 2.97262573 102.10932922 C2.96525266 100.60116639 2.95991559 99.09299259 2.95633507 97.58481598 C2.94916975 95.18672441 2.93349654 92.78883752 2.91499329 90.39080811 C2.8625721 83.56965183 2.81468735 76.74859879 2.79907227 69.92724609 C2.7888991 65.75668068 2.75932736 61.58661764 2.71775246 57.41625214 C2.70555324 55.83611634 2.70030063 54.25590913 2.70255089 52.67572784 C2.71647494 39.68862456 1.7231407 26.57518025 -7.875 16.8125 C-8.535 16.4825 -9.195 16.1525 -9.875 15.8125 C-9.875 15.1525 -9.875 14.4925 -9.875 13.8125 C-11.54830501 13.33441285 -13.22214175 12.85811784 -14.8984375 12.390625 C-16.63810402 11.88178973 -18.35327886 11.29075452 -20.0625 10.6875 C-31.30026999 8.10833967 -43.95072219 9.38025368 -54.125 14.8125 C-63.3500648 20.68080038 -68.03813218 27.69546035 -71.06750488 38.0809021 C-72.52647415 44.82309351 -72.4805249 51.53195875 -72.484375 58.39453125 C-72.49939546 59.94538566 -72.51613054 61.49622431 -72.53448486 63.04704285 C-72.57773794 67.08286367 -72.59806271 71.11846895 -72.61322021 75.15447998 C-72.63294499 79.29126515 -72.67489635 83.42782256 -72.71484375 87.56445312 C-72.78968891 95.64707507 -72.84025489 103.72960654 -72.875 111.8125 C-75.52090014 111.83934679 -78.16653096 111.85926357 -80.8125 111.875 C-81.56724609 111.88337891 -82.32199219 111.89175781 -83.09960938 111.90039062 C-85.02494313 111.90902441 -86.95035581 111.86474333 -88.875 111.8125 C-89.875 110.8125 -89.875 110.8125 -89.99804783 108.89345455 C-89.99712604 108.0463268 -89.99620424 107.19919905 -89.99525452 106.32640076 C-89.99662918 105.35739838 -89.99800385 104.388396 -89.99942017 103.39002991 C-89.99582489 102.31829025 -89.99222961 101.2465506 -89.98852539 100.14233398 C-89.98867142 99.02052734 -89.98881744 97.8987207 -89.9889679 96.74291992 C-89.9882682 93.01479189 -89.98047315 89.28671311 -89.97265625 85.55859375 C-89.97079227 82.98169482 -89.96936827 80.40479553 -89.96836853 77.82789612 C-89.96493342 71.72574885 -89.9570426 65.62362206 -89.94701904 59.52148253 C-89.93585689 52.5760075 -89.9303472 45.63053165 -89.92532361 38.68504989 C-89.91485996 24.39419034 -89.89726115 10.1033458 -89.875 -4.1875 C-87.22909986 -4.21434679 -84.58346904 -4.23426357 -81.9375 -4.25 C-81.18275391 -4.25837891 -80.42800781 -4.26675781 -79.65039062 -4.27539062 C-77.72505687 -4.28402441 -75.79964419 -4.23974333 -73.875 -4.1875 C-72.29096476 -2.60346476 -72.65525065 -0.9103362 -72.55859375 1.28515625 C-72.51669922 2.18427734 -72.47480469 3.08339844 -72.43164062 4.00976562 C-72.39232422 4.95529297 -72.35300781 5.90082031 -72.3125 6.875 C-72.26931641 7.82439453 -72.22613281 8.77378906 -72.18164062 9.75195312 C-72.07520724 12.10531353 -71.97318992 14.45878354 -71.875 16.8125 C-71.20404297 15.40677734 -71.20404297 15.40677734 -70.51953125 13.97265625 C-68.70481969 10.48547892 -66.77875386 8.44613722 -63.875 5.8125 C-63.38644531 5.35488281 -62.89789063 4.89726563 -62.39453125 4.42578125 C-59.32334007 1.67039379 -57.01499097 0.17779332 -52.875 -0.1875 C-52.875 -0.8475 -52.875 -1.5075 -52.875 -2.1875 C-36.23216932 -8.35967562 -15.66263474 -9.28313128 0 0 Z " fill="#1F1E1B" transform="translate(436.875,51.1875)"/>
<path d="M0 0 C5.28 0 10.56 0 16 0 C16 38.28 16 76.56 16 116 C10.72 116 5.44 116 0 116 C-1.59183899 114.40816101 -1.12599125 112.76554501 -1.12698364 110.55859375 C-1.12980347 109.59945068 -1.13262329 108.64030762 -1.13552856 107.65209961 C-1.13350433 106.59128174 -1.1314801 105.53046387 -1.12939453 104.4375 C-1.13114685 103.32705322 -1.13289917 102.21660645 -1.13470459 101.07250977 C-1.13912572 97.38165754 -1.13618419 93.69085276 -1.1328125 90 C-1.13348546 87.44791657 -1.13445542 84.89583321 -1.13571167 82.34375 C-1.137189 76.98697238 -1.13512756 71.63021195 -1.13037109 66.2734375 C-1.12492851 60.07216285 -1.12669118 53.87092107 -1.1321975 47.66964722 C-1.13727437 41.71465785 -1.13674707 35.75967873 -1.13381577 29.8046875 C-1.13314624 27.26562495 -1.13397582 24.72656158 -1.13629532 22.1875 C-1.1388203 18.64581036 -1.13498342 15.10418483 -1.12939453 11.5625 C-1.13141876 10.50168213 -1.13344299 9.44086426 -1.13552856 8.34790039 C-1.13270874 7.38875732 -1.12988892 6.42961426 -1.12698364 5.44140625 C-1.12660662 4.60295166 -1.12622959 3.76449707 -1.12584114 2.90063477 C-1 1 -1 1 0 0 Z " fill="#1E1D1A" transform="translate(314,47)"/>
<path d="M0 0 C0.33 0 0.66 0 1 0 C1.69045338 20.0311148 1.15333914 38.24430676 -11.75 54.6875 C-12.4925 55.450625 -13.235 56.21375 -14 57 C-14.66 57 -15.32 57 -16 57 C-16.33 57.99 -16.66 58.98 -17 60 C-19.1171875 61.68359375 -19.1171875 61.68359375 -21.875 63.4375 C-22.75929688 64.01371094 -23.64359375 64.58992188 -24.5546875 65.18359375 C-33.48266927 69.89052292 -41.2980105 71.67503648 -51.375 71.5 C-52.46901123 71.49081543 -53.56302246 71.48163086 -54.69018555 71.47216797 C-64.39381909 71.2542061 -72.33901419 69.48190874 -81 65 C-81 64.34 -81 63.68 -81 63 C-81.5775 62.896875 -82.155 62.79375 -82.75 62.6875 C-85.35661158 61.89103535 -86.9735311 60.80934723 -89 59 C-89 58.34 -89 57.68 -89 57 C-89.99 56.67 -90.98 56.34 -92 56 C-92 55.34 -92 54.68 -92 54 C-92.66 54 -93.32 54 -94 54 C-95.32421875 52.35546875 -95.32421875 52.35546875 -96.6875 50.1875 C-97.14511719 49.47980469 -97.60273437 48.77210938 -98.07421875 48.04296875 C-99 46 -99 46 -98 43 C-97.54560547 43.81404297 -97.54560547 43.81404297 -97.08203125 44.64453125 C-94.50295395 49.04880171 -92.60518271 51.5694869 -88 54 C-87.67 54.99 -87.34 55.98 -87 57 C-85.34051852 58.01187895 -83.67419438 59.0126546 -82 60 C-82 60.66 -82 61.32 -82 62 C-81.29875 62.103125 -80.5975 62.20625 -79.875 62.3125 C-76.60655835 63.09408387 -73.9993382 64.5003309 -71 66 C-68.55936559 66.67147918 -68.55936559 66.67147918 -66 67 C-64.42992187 67.25330078 -64.42992187 67.25330078 -62.828125 67.51171875 C-50.44602742 69.09106793 -37.43639429 69.45456735 -27 62 C-25.68 62 -24.36 62 -23 62 C-23 61.34 -23 60.68 -23 60 C-21.83370548 58.93139005 -20.61494068 57.9197002 -19.375 56.9375 C-15.46505984 53.64455394 -12.86765993 50.1729591 -10.2265625 45.8203125 C-9 44 -9 44 -7 43 C-2.07558785 32.8515917 -1.66759942 20.29925217 -1.29077148 9.20849609 C-1.17756388 5.91612815 -1.04830367 3.14491102 0 0 Z " fill="#100F0D" transform="translate(952,94)"/>
<path d="M0 0 C4.16004124 6.24006186 4.17939902 13.18307402 4.1875 20.4375 C4.1887085 21.50327271 4.1887085 21.50327271 4.18994141 22.59057617 C4.13431173 27.73137654 4.13431173 27.73137654 3 30 C-7.82355827 30.02329919 -18.64711046 30.04100388 -29.47068882 30.05181217 C-34.49796505 30.05700287 -39.52522397 30.0640302 -44.55249023 30.07543945 C-49.41545212 30.08640517 -54.27839747 30.09230545 -59.14137077 30.09487724 C-60.98504839 30.09670707 -62.82872524 30.10027949 -64.67239571 30.10573006 C-75.49773291 30.13642426 -86.20821147 29.90201645 -97 29 C-94.00379006 40.93240926 -90.68400305 49.0841425 -82 58 C-85 58 -85 58 -88 57 C-88 56.01 -88 55.02 -88 54 C-88.598125 53.7525 -89.19625 53.505 -89.8125 53.25 C-93.68184828 51.03894384 -94.79764519 48.67848378 -96.0625 44.4375 C-96.371875 43.303125 -96.68125 42.16875 -97 41 C-97.66 40.01 -98.32 39.02 -99 38 C-99 34.37 -99 30.74 -99 27 C-87.12 27 -75.24 27 -63 27 C-63 26.34 -63 25.68 -63 25 C-62.01 25 -61.02 25 -60 25 C-60 25.66 -60 26.32 -60 27 C-52.79175566 27.02531626 -45.58352275 27.04285262 -38.37524414 27.05493164 C-35.92211478 27.0599662 -33.46898843 27.06679424 -31.01586914 27.07543945 C-27.4936448 27.08754332 -23.97146006 27.09323703 -20.44921875 27.09765625 C-19.34913986 27.10281754 -18.24906097 27.10797882 -17.11564636 27.11329651 C-16.09481461 27.11337204 -15.07398285 27.11344757 -14.0222168 27.11352539 C-13.12286911 27.115746 -12.22352142 27.11796661 -11.29692078 27.12025452 C-8.83734702 27.09366856 -8.83734702 27.09366856 -6 26 C-3.66700175 25.96045766 -1.33291811 25.95598268 1 26 C1 24.68 1 23.36 1 22 C1.02320313 21.25363281 1.04640625 20.50726563 1.0703125 19.73828125 C1.18816961 14.51047647 0.74048006 9.95427787 -0.66015625 4.91015625 C-1 3 -1 3 0 0 Z " fill="#181614" transform="translate(691,82)"/>
<path d="M0 0 C0.53866699 0.14163574 1.07733398 0.28327148 1.63232422 0.42919922 C4.75504 1.18202552 7.67105337 1.12985079 10.8828125 1.1328125 C11.53829071 1.13376923 12.19376892 1.13472595 12.86911011 1.13571167 C14.24916683 1.13639001 15.62922681 1.1345599 17.00927734 1.13037109 C19.12474683 1.12500064 21.24000568 1.13033652 23.35546875 1.13671875 C24.69791714 1.13605824 26.04036539 1.13477765 27.3828125 1.1328125 C29.21416748 1.13112061 29.21416748 1.13112061 31.08251953 1.12939453 C33.93697215 1.20115734 33.93697215 1.20115734 36 0 C37.96128513 -0.01630435 39.9233288 0.03548524 41.8828125 0.12109375 C43.04941406 0.16943359 44.21601562 0.21777344 45.41796875 0.26757812 C47.25294922 0.35168945 47.25294922 0.35168945 49.125 0.4375 C50.35605469 0.48970703 51.58710937 0.54191406 52.85546875 0.59570312 C55.90388588 0.7256744 58.9519995 0.86065019 62 1 C61.67 1.99 61.34 2.98 61 4 C32.29 4 3.58 4 -26 4 C-23.54069709 15.01810138 -23.54069709 15.01810138 -18.3125 24.25 C-17 26 -17 26 -17 28 C-16.34 28 -15.68 28 -15 28 C-15 28.66 -15 29.32 -15 30 C-16.875 29.6875 -16.875 29.6875 -19 29 C-19.66 28.01 -20.32 27.02 -21 26 C-21.495 25.34 -21.99 24.68 -22.5 24 C-26 19.33333333 -26 19.33333333 -26 16 C-26.66 16 -27.32 16 -28 16 C-28.22304441 14.25181409 -28.4278645 12.50129677 -28.625 10.75 C-28.74101563 9.77546875 -28.85703125 8.8009375 -28.9765625 7.796875 C-29.00157878 4.81159915 -28.404203 3.55919591 -27 1 C-26.21761963 1.00523682 -25.43523926 1.01047363 -24.62915039 1.01586914 C-21.10694167 1.03657106 -17.5847457 1.04963838 -14.0625 1.0625 C-12.83080078 1.07087891 -11.59910156 1.07925781 -10.33007812 1.08789062 C-9.16025391 1.09111328 -7.99042969 1.09433594 -6.78515625 1.09765625 C-5.70113525 1.10289307 -4.61711426 1.10812988 -3.50024414 1.11352539 C-1.05950052 1.28426897 -1.05950052 1.28426897 0 0 Z " fill="#131210" transform="translate(748,108)"/>
<path d="M0 0 C1.32 0.66 2.64 1.32 4 2 C1.92061319 11.98538877 -3.41236609 20.18855411 -11 27 C-11.66 27 -12.32 27 -13 27 C-13 27.66 -13 28.32 -13 29 C-14.95388671 30.42238121 -16.8733396 31.69360541 -18.9375 32.9375 C-19.53506104 33.2979541 -20.13262207 33.6584082 -20.74829102 34.02978516 C-35.0164179 42.42822238 -52.2009837 43.64913454 -68.24609375 40.328125 C-70.86581059 39.63142961 -73.43019964 38.86099294 -76 38 C-77.216875 37.608125 -78.43375 37.21625 -79.6875 36.8125 C-80.450625 36.544375 -81.21375 36.27625 -82 36 C-82 35.67 -82 35.34 -82 35 C-79.69 35 -77.38 35 -75 35 C-75 35.66 -75 36.32 -75 37 C-74.28972656 36.98839844 -73.57945312 36.97679687 -72.84765625 36.96484375 C-71.92855469 36.95582031 -71.00945313 36.94679687 -70.0625 36.9375 C-69.14597656 36.92589844 -68.22945312 36.91429687 -67.28515625 36.90234375 C-65 37 -65 37 -64 38 C-60.52854086 38.25541217 -57.04221676 38.18524776 -53.5625 38.1875 C-52.12100586 38.20586914 -52.12100586 38.20586914 -50.65039062 38.22460938 C-44.86317636 38.23631648 -39.60364573 37.70766309 -33.97631836 36.33325195 C-32 36 -32 36 -30 37 C-30 36.34 -30 35.68 -30 35 C-29.28972656 34.66226563 -28.57945312 34.32453125 -27.84765625 33.9765625 C-26.46900391 33.30753906 -26.46900391 33.30753906 -25.0625 32.625 C-24.14597656 32.18414062 -23.22945312 31.74328125 -22.28515625 31.2890625 C-19.87096198 30.20800838 -19.87096198 30.20800838 -19 28 C-17.515 27.01 -17.515 27.01 -16 26 C-15.4225 25.4225 -14.845 24.845 -14.25 24.25 C-12.37537847 22.37537847 -10.50973677 20.8234764 -8.4375 19.1875 C-4.80387268 16.12719554 -3.63593577 13.41702657 -2 9 C-1.01755155 7.65368175 -0.02323436 6.31558703 1 5 C1 4.34 1 3.68 1 3 C0.01 2.01 0.01 2.01 -1 1 C-0.67 0.67 -0.34 0.34 0 0 Z " fill="#100F0D" transform="translate(817,124)"/>
<path d="M0 0 C-0.94875 0.37125 -1.8975 0.7425 -2.875 1.125 C-12.27533619 5.19721041 -21.16699469 10.54250956 -26.1875 19.75 C-28 23 -28 23 -29.98046875 24.39453125 C-32.46203804 26.36730684 -33.06485453 27.97532885 -34.125 30.9375 C-35.91082317 35.83006513 -35.91082317 35.83006513 -37.1171875 38.12890625 C-38.21335305 40.10737841 -38.21335305 40.10737841 -38 43 C-38.33 43.66 -38.66 44.32 -39 45 C-39.41801973 48.1734799 -39.5616957 51.36821614 -39.75 54.5625 C-39.85248047 55.86670898 -39.85248047 55.86670898 -39.95703125 57.19726562 C-40.27430739 62.65197472 -39.74971461 66.86141072 -37.73217773 71.95263672 C-36.5527307 75.25068367 -36.31604522 78.52350262 -36 82 C-36.66 82 -37.32 82 -38 82 C-38.48509793 80.62708132 -38.96275513 79.25153297 -39.4375 77.875 C-39.70433594 77.10929687 -39.97117187 76.34359375 -40.24609375 75.5546875 C-45.36456443 58.21023245 -42.30509486 39.82552631 -34.1328125 24.16064453 C-31.90933515 20.12950615 -29.3683964 17.11604096 -26 14 C-25.175 13.154375 -24.35 12.30875 -23.5 11.4375 C-18.14978415 6.22103955 -7.88951283 -2.62983761 0 0 Z " fill="#10100F" transform="translate(619,48)"/>
<path d="M0 0 C4.38126375 2.19063188 6.21365527 8.65497913 8 13 C8.64204357 16.06705947 8.84545551 18.85759531 9 22 C9.33 22.33 9.66 22.66 10 23 C10.28462489 27.32629827 10.23195828 31.6654762 10.25 36 C10.270625 37.20785156 10.29125 38.41570312 10.3125 39.66015625 C10.34354717 46.79324343 9.7084584 52.38565948 7 59 C6.01 59 5.02 59 4 59 C3.79375 59.680625 3.5875 60.36125 3.375 61.0625 C1.54591134 64.97009851 -1.10279034 67.83857939 -4 71 C-4.99 70.67 -5.98 70.34 -7 70 C-5.71937515 68.2925002 -4.38232443 66.62626404 -3 65 C-2.34 65 -1.68 65 -1 65 C0.37761976 62.26936083 1.7208203 59.5282184 3 56.75 C3.33 56.04359375 3.66 55.3371875 4 54.609375 C6.67242156 47.63602498 7.38851534 41.22026005 7.375 33.8125 C7.37338867 32.89065918 7.37177734 31.96881836 7.37011719 31.01904297 C7.20580337 21.81908014 5.43402527 13.87959314 0.6875 5.875 C-0.1478125 4.451875 -0.1478125 4.451875 -1 3 C-0.67 2.01 -0.34 1.02 0 0 Z " fill="#11110F" transform="translate(929,72)"/>
<path d="M0 0 C2.64590014 -0.02684679 5.29153096 -0.04676357 7.9375 -0.0625 C8.69224609 -0.07087891 9.44699219 -0.07925781 10.22460938 -0.08789062 C12.14994313 -0.09652441 14.07535581 -0.05224333 16 0 C17.75533958 1.75533958 17.17046549 4.23613828 17.20532227 6.62133789 C17.22526749 7.82250748 17.24521271 9.02367706 17.26576233 10.26124573 C17.28247482 11.5685112 17.29918732 12.87577667 17.31640625 14.22265625 C17.33696958 15.56644847 17.35796588 16.91023412 17.37937927 18.25401306 C17.43466419 21.79674987 17.48404498 25.33954567 17.53222656 28.88238525 C17.58239487 32.4952115 17.63810525 36.10795172 17.69335938 39.72070312 C17.80101937 46.81372747 17.9024468 53.90682888 18 61 C17.01 61 16.02 61 15 61 C15 41.53 15 22.06 15 2 C10.38 2 5.76 2 1 2 C1 4.64 1 7.28 1 10 C0.67 10 0.34 10 0 10 C0 6.7 0 3.4 0 0 Z " fill="#0D0C0A" transform="translate(471,45)"/>
<path d="M0 0 C0.33 0 0.66 0 1 0 C1.02312589 8.8488239 1.04091634 17.69763747 1.05181217 26.54648495 C1.05704046 30.65494285 1.06413713 34.76338014 1.07543945 38.87182617 C1.08627025 42.83346828 1.09227724 46.79509052 1.09487724 50.75674629 C1.09673114 52.27148311 1.1003511 53.78621879 1.10573006 55.30094719 C1.11294307 57.41541813 1.11399083 59.52980594 1.11352539 61.64428711 C1.115746 62.85007919 1.11796661 64.05587128 1.12025452 65.29820251 C1 68 1 68 0 69 C-2.18639453 69.07258946 -4.37500389 69.08373783 -6.5625 69.0625 C-7.76003906 69.05347656 -8.95757812 69.04445313 -10.19140625 69.03515625 C-11.58166016 69.01775391 -11.58166016 69.01775391 -13 69 C-9.45831328 66.87498797 -6.0535699 66.52502481 -2 66 C-1.98969254 65.18789566 -1.97938507 64.37579132 -1.96876526 63.53907776 C-1.87096021 55.90163512 -1.76847052 48.26427678 -1.66066074 40.62696934 C-1.60539585 36.70015386 -1.5519703 32.77333099 -1.50268555 28.84643555 C-1.45509439 25.05979158 -1.40275376 21.27324084 -1.34705925 17.48670769 C-1.32661182 16.03898362 -1.30790276 14.59123397 -1.29092598 13.14346504 C-1.26693492 11.12235841 -1.23629925 9.1013339 -1.20532227 7.08032227 C-1.18977798 5.92782486 -1.1742337 4.77532745 -1.15821838 3.58790588 C-1 1 -1 1 0 0 Z " fill="#100F0C" transform="translate(456,94)"/>
<path d="M0 0 C0 0.33 0 0.66 0 1 C-0.99 0.855625 -1.98 0.71125 -3 0.5625 C-4.33329284 0.37471228 -5.66662853 0.18722863 -7 0 C-9.85742188 -0.40820312 -9.85742188 -0.40820312 -12.71484375 -0.81640625 C-19.87944108 -1.39202347 -26.40392737 -0.636049 -33.4375 0.6875 C-34.32759766 0.83638672 -35.21769531 0.98527344 -36.13476562 1.13867188 C-42.55948192 2.33538674 -47.4486431 4.61763961 -53 8 C-56.56021231 9.66143241 -57.96006954 10 -62 10 C-62.33 10.99 -62.66 11.98 -63 13 C-64.65 13.33 -66.3 13.66 -68 14 C-67 11 -67 11 -65.1809082 9.80493164 C-64.39546631 9.42715576 -63.61002441 9.04937988 -62.80078125 8.66015625 C-61.9279248 8.23855225 -61.05506836 7.81694824 -60.15576172 7.38256836 C-58.74834717 6.72913452 -58.74834717 6.72913452 -57.3125 6.0625 C-56.35875488 5.61592041 -55.40500977 5.16934082 -54.42236328 4.70922852 C-36.97008766 -3.28691025 -18.4370095 -7.40273866 0 0 Z " fill="#759FDF" transform="translate(228,31)"/>
<path d="M0 0 C0.33 0 0.66 0 1 0 C1 21.12 1 42.24 1 64 C-2.20015856 65.06671952 -3.88544294 64.94845472 -7.1875 64.5625 C-8.08855469 64.46066406 -8.98960937 64.35882813 -9.91796875 64.25390625 C-10.94857422 64.12822266 -10.94857422 64.12822266 -12 64 C-9.24072656 61.24072656 -6.78845948 61.48216757 -3 61 C-1.27342664 59.27342664 -1.83941297 56.94905191 -1.81054688 54.59399414 C-1.79382935 53.43932144 -1.77711182 52.28464874 -1.7598877 51.09498596 C-1.73952454 49.20912025 -1.73952454 49.20912025 -1.71875 47.28515625 C-1.69062783 45.3279807 -1.6625004 43.3708052 -1.63405609 41.4136343 C-1.58525208 37.96330857 -1.54284533 34.51290402 -1.5 31.0625 C-1.44891811 26.95262137 -1.39673244 22.84278066 -1.33703613 18.73301697 C-1.3002371 16.17005872 -1.26783242 13.60703309 -1.2401123 11.04396057 C-1.22339478 9.88613571 -1.20667725 8.72831085 -1.18945312 7.53540039 C-1.17066101 6.00104088 -1.17066101 6.00104088 -1.15148926 4.4356842 C-1 2 -1 2 0 0 Z " fill="#141412" transform="translate(851,141)"/>
<path d="M0 0 C-7.23126778 2.92827227 -14.2731782 5.75560548 -22 7 C-22.66773438 7.11085937 -23.33546875 7.22171875 -24.0234375 7.3359375 C-33.87442482 8.69090602 -44.19113358 8.60144758 -54 7 C-53 5 -53 5 -50 4 C-44.56499783 3.6418797 -39.37588938 4.188545 -34 5 C-32.0003305 5.03635763 -29.99940538 5.04876598 -28 5 C-27.67 4.34 -27.34 3.68 -27 3 C-25.329375 3.061875 -25.329375 3.061875 -23.625 3.125 C-19.95633975 3.41121859 -19.95633975 3.41121859 -18 1 C-15.6171875 1.0234375 -15.6171875 1.0234375 -12.875 1.375 C-11.96492188 1.48585937 -11.05484375 1.59671875 -10.1171875 1.7109375 C-9.06917969 1.85402344 -9.06917969 1.85402344 -8 2 C-8 1.34 -8 0.68 -8 0 C-4.71303767 -0.79953138 -3.28976808 -1.09658936 0 0 Z " fill="#7EA5E6" transform="translate(226,177)"/>
<path d="M0 0 C4.12751449 0.60698743 7.3321148 2.03810791 11 4 C10.78147508 13.83362128 3.53738375 22.15855189 -3 29 C-3.66 29 -4.32 29 -5 29 C-5 29.66 -5 30.32 -5 31 C-7.08203125 32.54296875 -7.08203125 32.54296875 -9.8125 34.1875 C-11.15248047 35.01314453 -11.15248047 35.01314453 -12.51953125 35.85546875 C-15 37 -15 37 -18 36 C-17.34 35.34 -16.68 34.68 -16 34 C-15.01 34 -14.02 34 -13 34 C-13.495 32.515 -13.495 32.515 -14 31 C-13.401875 30.855625 -12.80375 30.71125 -12.1875 30.5625 C-10.43849596 30.1127561 -8.71322977 29.57107659 -7 29 C-7 28.01 -7 27.02 -7 26 C-3.66666667 23 -3.66666667 23 -1 23 C-0.34 21.35 0.32 19.7 1 18 C1.66 18 2.32 18 3 18 C4.86551426 14.41247258 6.42535928 10.72187807 8 7 C6.2984375 6.38125 6.2984375 6.38125 4.5625 5.75 C1 4 1 4 0.0625 1.8125 C0.041875 1.214375 0.02125 0.61625 0 0 Z " fill="#10100E" transform="translate(682,122)"/>
<path d="M0 0 C0.495 0.99 0.495 0.99 1 2 C0.20078125 2.14695313 -0.5984375 2.29390625 -1.421875 2.4453125 C-13.36862624 4.88514198 -24.47927242 8.92759699 -32 19 C-35.39864904 24.76556534 -37.97608431 30.62561132 -40 37 C-40.66 36.67 -41.32 36.34 -42 36 C-43.02374444 29.51628521 -39.50144568 25.11947315 -36 20 C-34.679762 18.32294092 -33.35156675 16.65191491 -32 15 C-31.67 14.01 -31.34 13.02 -31 12 C-29.31726405 10.98400848 -27.63025614 9.97019842 -25.88671875 9.0625 C-23.94809512 8.03106486 -23.94809512 8.03106486 -22.1640625 6.578125 C-19.47090656 4.6141629 -16.68724367 3.20228483 -13.6875 1.75 C-12.59824219 1.20859375 -11.50898437 0.6671875 -10.38671875 0.109375 C-6.44232324 -1.18267612 -3.99751587 -1.01303508 0 0 Z " fill="#141411" transform="translate(893,58)"/>
<path d="M0 0 C3.10826603 0.30977651 4.56890124 0.48910652 6.625 2.92578125 C7.07875 3.71339844 7.5325 4.50101563 8 5.3125 C10.30294136 9.05625595 12.49051884 11.32171175 16 14 C17.36011609 15.98188345 18.69791204 17.97951869 20 20 C20.66 20.33 21.32 20.66 22 21 C22 21.66 22 22.32 22 23 C22.66 23 23.32 23 24 23 C24 23.66 24 24.32 24 25 C28.95 25 33.9 25 39 25 C39 24.01 39 23.02 39 22 C38.34 22 37.68 22 37 22 C37 21.34 37 20.68 37 20 C37.99 20.33 38.98 20.66 40 21 C40 21.66 40 22.32 40 23 C40.99 23.33 41.98 23.66 43 24 C43 25.32 43 26.64 43 28 C25.67244925 29.78647423 25.67244925 29.78647423 20.125 26.078125 C18.28896225 23.72744031 16.69907324 21.34111168 15.17236328 18.78125 C12.82113867 15.20887707 9.84712078 12.11713684 7 8.9375 C5.87174842 7.65780737 4.7465122 6.37544681 3.625 5.08984375 C3.14289062 4.54191162 2.66078125 3.99397949 2.1640625 3.42944336 C1 2 1 2 0 0 Z " fill="#10100E" transform="translate(544,135)"/>
<path d="M0 0 C0.33 0.66 0.66 1.32 1 2 C2.32 2 3.64 2 5 2 C5.3403125 3.175625 5.3403125 3.175625 5.6875 4.375 C7.34381054 7.68762108 8.64038286 7.74014357 12 9 C13.1875 11.0625 13.1875 11.0625 14 13 C14.66 13.33 15.32 13.66 16 14 C16 14.66 16 15.32 16 16 C16.66 16 17.32 16 18 16 C19.1484375 17.64453125 19.1484375 17.64453125 20.375 19.8125 C22.2605817 22.98497722 23.89850311 24.93233541 27 27 C27 27.66 27 28.32 27 29 C27.66 29.33 28.32 29.66 29 30 C29.625 32.0625 29.625 32.0625 30 34 C28.0625 33.1875 28.0625 33.1875 26 32 C25.505 30.515 25.505 30.515 25 29 C24.34 29 23.68 29 23 29 C22.731875 28.195625 22.46375 27.39125 22.1875 26.5625 C21.795625 25.716875 21.40375 24.87125 21 24 C20.01 23.67 19.02 23.34 18 23 C16.45270538 21.11646088 14.98294287 19.1684549 13.5625 17.1875 C10.90521683 13.49607955 8.30899482 10.12476813 5 7 C4 6 3 5 2 4 C0.63875 4.9590625 0.63875 4.9590625 -0.75 5.9375 C-3.39221381 7.61428953 -4.9898499 8.53689998 -8 9 C-6.8553125 7.88625 -6.8553125 7.88625 -5.6875 6.75 C-3.5606298 4.5736677 -1.7440044 2.47832204 0 0 Z " fill="#141312" transform="translate(514,99)"/>
<path d="M0 0 C4.16004124 6.24006186 4.17939902 13.18307402 4.1875 20.4375 C4.18830566 21.14801514 4.18911133 21.85853027 4.18994141 22.59057617 C4.13431173 27.73137654 4.13431173 27.73137654 3 30 C-5.58 30 -14.16 30 -23 30 C-18.52 26.64 -18.52 26.64 -13.9375 26.875 C-10.79927652 27.01657399 -9.02701046 27.00900349 -6 26 C-3.66700175 25.96045766 -1.33291811 25.95598268 1 26 C1 24.68 1 23.36 1 22 C1.02320313 21.25363281 1.04640625 20.50726563 1.0703125 19.73828125 C1.18816961 14.51047647 0.74048006 9.95427787 -0.66015625 4.91015625 C-1 3 -1 3 0 0 Z " fill="#11100E" transform="translate(691,82)"/>
<path d="M0 0 C-0.33 0.66 -0.66 1.32 -1 2 C-1.90621094 1.82855469 -2.81242188 1.65710937 -3.74609375 1.48046875 C-9.18022807 0.70806978 -14.59733087 1.06967751 -20.0625 1.3125 C-21.65674805 1.36567383 -21.65674805 1.36567383 -23.28320312 1.41992188 C-28.51728352 1.63896209 -33.10915494 1.92329802 -38 4 C-38 4.66 -38 5.32 -38 6 C-38.99 6 -39.98 6 -41 6 C-41.33 6.66 -41.66 7.32 -42 8 C-45.58646443 9.74199701 -49.06693147 10.45119974 -53 11 C-47.15679162 3.94785195 -38.33716052 0.64460613 -29.4375 -0.7265625 C-8.99623588 -2.35257215 -8.99623588 -2.35257215 0 0 Z " fill="#0C0C0B" transform="translate(780,46)"/>
<path d="M0 0 C1.56539324 3.13078649 2.79463079 6.14302507 3.953125 9.43115234 C6.82946698 17.53425138 10.39649161 24.71111172 15 32 C24.25313631 47.02553677 24.25313631 47.02553677 23.6875 51.4375 C23.460625 51.953125 23.23375 52.46875 23 53 C21.74335022 50.09399739 21 48.20395416 21 45 C19.515 44.505 19.515 44.505 18 44 C17.67 41.69 17.34 39.38 17 37 C15.515 36.505 15.515 36.505 14 36 C14 35.01 14 34.02 14 33 C13.34 33 12.68 33 12 33 C12 32.34 12 31.68 12 31 C9.69 30.34 7.38 29.68 5 29 C5.33 28.34 5.66 27.68 6 27 C6.66 27.33 7.32 27.66 8 28 C7.46515599 22.65155992 5.53309233 18.64203897 3 14 C2.01 14.495 2.01 14.495 1 15 C0.67 10.05 0.34 5.1 0 0 Z " fill="#74A1EA" transform="translate(245,57)"/>
<path d="M0 0 C2 1.25 2 1.25 4 3 C4 4.32 4 5.64 4 7 C4.66 7.33 5.32 7.66 6 8 C6.421875 9.78515625 6.421875 9.78515625 6.75 12.0625 C7.6719149 16.80053806 9.64337342 19.65234326 12.7578125 23.2734375 C14 25 14 25 14 28 C14.721875 28.226875 15.44375 28.45375 16.1875 28.6875 C19.53652223 30.25037704 21.47247546 32.33585251 24 35 C24.66 35.33 25.32 35.66 26 36 C26 36.66 26 37.32 26 38 C26.66 38 27.32 38 28 38 C28 38.66 28 39.32 28 40 C28.66 40.33 29.32 40.66 30 41 C25.9666466 41 24.16482462 39.39120082 21 37 C21 36.34 21 35.68 21 35 C20.40703125 34.73445313 19.8140625 34.46890625 19.203125 34.1953125 C9.77758244 29.0814543 4.12617471 15.79850927 1.05078125 5.96484375 C0.5 3.5 0.5 3.5 0 0 Z " fill="#10100E" transform="translate(705,117)"/>
<path d="M0 0 C2.475 0.495 2.475 0.495 5 1 C5 1.66 5 2.32 5 3 C4.32195313 3.21914063 3.64390625 3.43828125 2.9453125 3.6640625 C-12.24710923 8.8404278 -20.97289012 16.24713573 -28.25 30.4375 C-28.4975 30.953125 -28.745 31.46875 -29 32 C-30.49735714 27.50792858 -28.81474978 24.24188425 -27 20 C-24.45691852 16.1006084 -21.96044077 14.31830679 -18 12 C-17.236875 11.195625 -16.47375 10.39125 -15.6875 9.5625 C-11.22720665 5.30966216 -5.72762873 3.14786077 0 1 C0 0.67 0 0.34 0 0 Z " fill="#131311" transform="translate(752,57)"/>
<path d="M0 0 C7.54794563 6.55875617 8.55583567 19.75052996 9.22265625 29.1328125 C9.38882743 34.6670354 9.38882743 34.6670354 9 37 C8.01 37.66 7.02 38.32 6 39 C5.34 38.67 4.68 38.34 4 38 C4 37.34 4 36.68 4 36 C4.66 36 5.32 36 6 36 C6 33.03 6 30.06 6 27 C5.34 26.67 4.68 26.34 4 26 C4.33 25.34 4.66 24.68 5 24 C4.6732039 21.66574212 4.33859959 19.33257494 4 17 C3.91599718 14.32591039 3.95304506 11.67643132 4 9 C3.34 8.67 2.68 8.34 2 8 C2.33 7.34 2.66 6.68 3 6 C2.01 6 1.02 6 0 6 C0 4.02 0 2.04 0 0 Z " fill="#0E0D0B" transform="translate(814,73)"/>
<path d="M0 0 C0 3 0 3 -1.4375 5.375 C-3.00282114 8.00473952 -3.57112625 9.99788375 -4 13 C-5.32 13.33 -6.64 13.66 -8 14 C-7.67 14.66 -7.34 15.32 -7 16 C-3.37 15.01 0.26 14.02 4 13 C1.06016325 15.93983675 -1.76228923 18.44391255 -5 21 C-5.66 21.66 -6.32 22.32 -7 23 C-8.32 20.69 -9.64 18.38 -11 16 C-11.99 16 -12.98 16 -14 16 C-10.87292522 8.92293602 -5.86296719 4.7721826 0 0 Z " fill="#181715" transform="translate(379,52)"/>
<path d="M0 0 C1.39915812 0.74377904 2.79416383 1.49537095 4.1875 2.25 C4.96480469 2.66765625 5.74210938 3.0853125 6.54296875 3.515625 C18.20367022 10.56024592 24.23475921 22.41203857 27.59375 35.2734375 C28.26563152 38.89243568 28.11755478 39.82366783 26 43 C25.70833333 41.54166667 25.41666667 40.08333333 25.125 38.625 C24.94195313 37.72136719 24.75890625 36.81773438 24.5703125 35.88671875 C24.19285055 33.9761408 23.83317925 32.06195407 23.4921875 30.14453125 C23.32976563 29.25121094 23.16734375 28.35789062 23 27.4375 C22.855625 26.61121094 22.71125 25.78492187 22.5625 24.93359375 C22.376875 24.29550781 22.19125 23.65742187 22 23 C21.34 22.67 20.68 22.34 20 22 C19.67 21.01 19.34 20.02 19 19 C17.31090232 17.41250218 15.51598057 16.02608082 13.69140625 14.59765625 C12 13 12 13 11.06640625 10.94921875 C9.62721662 8.31861207 8.1223118 7.84892472 5.375 6.75 C4.55773437 6.41484375 3.74046875 6.0796875 2.8984375 5.734375 C2.27195312 5.49203125 1.64546875 5.2496875 1 5 C1 4.34 1 3.68 1 3 C0.34 2.34 -0.32 1.68 -1 1 C-0.67 0.67 -0.34 0.34 0 0 Z " fill="#0F0F0E" transform="translate(924,50)"/>
<path d="M0 0 C0.33 0 0.66 0 1 0 C0.67 3.63 0.34 7.26 0 11 C-0.99 11.33 -1.98 11.66 -3 12 C-3.42533236 24.76487855 -3.75693493 35.99683802 1 48 C1.60124005 49.93201823 2.18593323 51.86930348 2.75 53.8125 C2.99234375 54.62332031 3.2346875 55.43414062 3.484375 56.26953125 C3.65453125 56.84058594 3.8246875 57.41164062 4 58 C0.29955181 55.53303454 -0.10364738 53.80821892 -1.625 49.6875 C-2.05039063 48.55699219 -2.47578125 47.42648438 -2.9140625 46.26171875 C-5.14033446 39.5748947 -5.21591161 33.30488199 -5.25 26.3125 C-5.270625 25.27416016 -5.29125 24.23582031 -5.3125 23.16601562 C-5.35494514 14.70351654 -3.93326021 7.52166617 0 0 Z " fill="#81ABED" transform="translate(116,82)"/>
<path d="M0 0 C-1.1870299 6.72650277 -7.37736254 10.69054051 -12.625 14.5 C-18.4292985 18.42302817 -24.54375941 22.24726909 -31 25 C-31.99 24.67 -32.98 24.34 -34 24 C-33.67 23.34 -33.34 22.68 -33 22 C-32.01 22.33 -31.02 22.66 -30 23 C-30 22.34 -30 21.68 -30 21 C-26.3874638 19.15172566 -22.7910119 17.44950455 -19 16 C-19 15.34 -19 14.68 -19 14 C-17.02 13.67 -15.04 13.34 -13 13 C-12.67 11.68 -12.34 10.36 -12 9 C-11.34 9 -10.68 9 -10 9 C-9.67 8.01 -9.34 7.02 -9 6 C-7.44140625 4.39453125 -7.44140625 4.39453125 -5.5625 2.8125 C-4.94503906 2.28269531 -4.32757813 1.75289062 -3.69140625 1.20703125 C-2 0 -2 0 0 0 Z " fill="#769EDB" transform="translate(259,151)"/>
<path d="M0 0 C2.5 1.3125 2.5 1.3125 5 3 C5 3.99 5 4.98 5 6 C5.99 6.33 6.98 6.66 8 7 C9.11680112 8.38754079 10.23272422 9.77579926 11.34375 11.16796875 C14.74418824 14.92930255 18.73355681 18.26670144 23 21 C24.32 21 25.64 21 27 21 C27.33 22.32 27.66 23.64 28 25 C28.66 25 29.32 25 30 25 C29.67 25.66 29.34 26.32 29 27 C16.988113 21.14467577 6.36780172 14.24378136 0 2 C0 1.34 0 0.68 0 0 Z " fill="#131310" transform="translate(584,135)"/>
<path d="M0 0 C0.99 0.66 1.98 1.32 3 2 C2.34 2.66 1.68 3.32 1 4 C0.7540591 6.9366021 0.62624748 9.78562112 0.5859375 12.7265625 C0.56657135 13.58937836 0.5472052 14.45219421 0.5272522 15.34115601 C0.46737796 18.10233616 0.42104002 20.86355784 0.375 23.625 C0.33682741 25.49481005 0.29777611 27.36460238 0.2578125 29.234375 C0.16167008 33.82277309 0.07766834 38.41125351 0 43 C-2.64 43 -5.28 43 -8 43 C-8 42.67 -8 42.34 -8 42 C-6.02 42 -4.04 42 -2 42 C-2.01047363 40.83428467 -2.02094727 39.66856934 -2.03173828 38.4675293 C-2.06791722 34.14578315 -2.09089281 29.82405041 -2.10986328 25.50219727 C-2.11992567 23.63108062 -2.13357691 21.75997972 -2.15087891 19.88891602 C-2.17511684 17.20064409 -2.18648063 14.51257994 -2.1953125 11.82421875 C-2.20563507 10.98662521 -2.21595764 10.14903168 -2.22659302 9.28605652 C-2.22774341 3.34161512 -2.22774341 3.34161512 0 0 Z " fill="#121210" transform="translate(488,120)"/>
<path d="M0 0 C0.66 0.66 1.32 1.32 2 2 C1.01 3.485 1.01 3.485 0 5 C-0.57300684 8.17997801 -0.6510415 11.40051005 -0.8125 14.625 C-0.87630859 15.48996094 -0.94011719 16.35492188 -1.00585938 17.24609375 C-1.29461767 22.67149611 -0.73023235 26.88822711 1.27001953 31.95043945 C2.44519298 35.2499649 2.68394297 38.52337264 3 42 C2.34 42 1.68 42 1 42 C0.51490207 40.62708132 0.03724487 39.25153297 -0.4375 37.875 C-0.70433594 37.10929687 -0.97117187 36.34359375 -1.24609375 35.5546875 C-3.12481398 29.1884542 -3.1524021 23.01857063 -3.125 16.4375 C-3.12886719 15.50486328 -3.13273438 14.57222656 -3.13671875 13.61132812 C-3.13542969 12.70705078 -3.13414062 11.80277344 -3.1328125 10.87109375 C-3.13168457 10.05568115 -3.13055664 9.24026855 -3.12939453 8.40014648 C-2.990573 5.82513796 -2.67983435 3.4892272 -2 1 C-1.34 0.67 -0.68 0.34 0 0 Z " fill="#181815" transform="translate(580,88)"/>
<path d="M0 0 C4 5 4 5 5.6875 7.4375 C10.72388195 13.01835567 17.24975391 16.36498041 24.15234375 19.140625 C26 20 26 20 28 22 C25.04893565 23.25348607 24.02593537 23.01044806 20.984375 21.78515625 C19.91703125 21.21667969 18.8496875 20.64820313 17.75 20.0625 C16.67234375 19.49660156 15.5946875 18.93070313 14.484375 18.34765625 C13.66453125 17.90292969 12.8446875 17.45820313 12 17 C12 16.34 12 15.68 12 15 C11.38125 14.87625 10.7625 14.7525 10.125 14.625 C6.8778902 13.66996771 5.13581143 11.09877552 2.9375 8.625 C2.41027344 8.03976563 1.88304687 7.45453125 1.33984375 6.8515625 C-0.09525027 4.86837134 -0.66599828 3.41508935 -1 1 C-0.67 0.67 -0.34 0.34 0 0 Z " fill="#11100F" transform="translate(857,128)"/>
<path d="M0 0 C-0.66 0 -1.32 0 -2 0 C-2.33 1.32 -2.66 2.64 -3 4 C-9.75 6.125 -9.75 6.125 -12 5 C-11.195625 4.731875 -10.39125 4.46375 -9.5625 4.1875 C-8.716875 3.795625 -7.87125 3.40375 -7 3 C-6.67 2.01 -6.34 1.02 -6 0 C-3.50907189 -1.24546405 -2.58919267 -0.7767578 0 0 Z M-14 6 C-13.34 6.33 -12.68 6.66 -12 7 C-12.474375 7.433125 -12.94875 7.86625 -13.4375 8.3125 C-15.23686957 10.02309613 -15.23686957 10.02309613 -16 13 C-18.0625 13.6875 -18.0625 13.6875 -20 14 C-20 14.66 -20 15.32 -20 16 C-25.17578125 19.22265625 -25.17578125 19.22265625 -27 20 C-27.99 19.67 -28.98 19.34 -30 19 C-29.34 19 -28.68 19 -28 19 C-28 18.34 -28 17.68 -28 17 C-26.27852222 15.62340232 -24.49622345 14.32227237 -22.6875 13.0625 C-18.07378496 9.84670321 -18.07378496 9.84670321 -14 6 Z " fill="#111110" transform="translate(564,48)"/>
<path d="M0 0 C0.66 0 1.32 0 2 0 C1.938125 1.216875 1.87625 2.43375 1.8125 3.6875 C1.79860279 7.6204095 2.68712398 9.76197357 5 13 C5.33 13.99 5.66 14.98 6 16 C5.38125 16.4125 4.7625 16.825 4.125 17.25 C1.93231719 19.05573879 1.07211583 20.4090534 0 23 C-2.18768843 15.72506783 -1.34350823 7.38929527 0 0 Z M5 9 C5 12 5 12 5 12 Z " fill="#1C1C19" transform="translate(705,92)"/>
<path d="M0 0 C0.66 0.66 1.32 1.32 2 2 C1.48050781 2.46148437 0.96101562 2.92296875 0.42578125 3.3984375 C-6.50332344 9.8792637 -10.36371306 16.89282693 -13 26 C-13.66 25.67 -14.32 25.34 -15 25 C-15.37350284 20.64246682 -14.39866229 18.59799343 -12 15 C-11.35253929 13.77168977 -10.70677691 12.54248319 -10.0625 11.3125 C-8.13092554 8.21027436 -7.38474596 7.08795406 -4 6 C-4 4.35 -4 2.7 -4 1 C-2.125 0.375 -2.125 0.375 0 0 Z " fill="#151412" transform="translate(608,67)"/>
<path d="M0 0 C0.33 0.66 0.66 1.32 1 2 C-1.66666667 4.66666667 -4.33333333 7.33333333 -7 10 C-7.86625 10.9075 -8.7325 11.815 -9.625 12.75 C-12 15 -12 15 -15 16 C-15.33 17.65 -15.66 19.3 -16 21 C-17.32 21.33 -18.64 21.66 -20 22 C-17.76482276 15.66699781 -14.58666547 10.82245532 -9 7 C-8.34 7 -7.68 7 -7 7 C-6.67 6.01 -6.34 5.02 -6 4 C-4.04402816 2.60287726 -2.04563599 1.26220093 0 0 Z " fill="#82ADF0" transform="translate(137,60)"/>
<path d="M0 0 C2.25 0.25 2.25 0.25 4 1 C0.18959517 4.97007894 -3.85673832 8.4230115 -8.1875 11.8125 C-8.81591797 12.31458984 -9.44433594 12.81667969 -10.09179688 13.33398438 C-14.75536777 17 -14.75536777 17 -17 17 C-15.62845314 13.81580579 -14.13830017 12.02887404 -11.4375 9.875 C-8.78974334 7.79096366 -8.78974334 7.79096366 -7 5 C-6.01 4.67 -5.02 4.34 -4 4 C-3.360625 3.29875 -2.72125 2.5975 -2.0625 1.875 C-1.381875 1.25625 -0.70125 0.6375 0 0 Z " fill="#151513" transform="translate(576,50)"/>
<path d="M0 0 C1.35641602 -0.00193359 1.35641602 -0.00193359 2.74023438 -0.00390625 C3.67287109 -0.00003906 4.60550781 0.00382812 5.56640625 0.0078125 C6.49517578 0.00394531 7.42394531 0.00007813 8.38085938 -0.00390625 C13.0766421 0.00277814 17.51120694 0.16147675 22.12890625 1.1328125 C22.12890625 1.7928125 22.12890625 2.4528125 22.12890625 3.1328125 C21.47929932 3.09728271 20.82969238 3.06175293 20.16040039 3.02514648 C17.17108426 2.86596786 14.18130759 2.71807456 11.19140625 2.5703125 C10.16982422 2.51423828 9.14824219 2.45816406 8.09570312 2.40039062 C1.95886319 2.10629286 -3.78527792 2.27610224 -9.87109375 3.1328125 C-9.87109375 2.4728125 -9.87109375 1.8128125 -9.87109375 1.1328125 C-6.52457411 0.38335286 -3.42728328 0.00474083 0 0 Z " fill="#0D0D0C" transform="translate(629.87109375,44.8671875)"/>
<path d="M0 0 C0.66 0 1.32 0 2 0 C2.33 0.99 2.66 1.98 3 3 C-6.44343382 3.71960516 -15.57130123 4.32368341 -25 3 C-24.67 2.34 -24.34 1.68 -24 1 C-23.30849854 1.00523682 -22.61699707 1.01047363 -21.90454102 1.01586914 C-18.79053648 1.036575 -15.67654639 1.04963963 -12.5625 1.0625 C-11.47388672 1.07087891 -10.38527344 1.07925781 -9.26367188 1.08789062 C-7.71196289 1.09272461 -7.71196289 1.09272461 -6.12890625 1.09765625 C-5.17056885 1.10289307 -4.21223145 1.10812988 -3.22485352 1.11352539 C-1.02714661 1.2505313 -1.02714661 1.2505313 0 0 Z " fill="#0B0B09" transform="translate(648,162)"/>
<path d="M0 0 C2.38094225 1.19047113 3.09002752 2.33903316 4.625 4.5 C8.11888568 9.273824 12.01665636 13.63247601 16 18 C15.67 18.66 15.34 19.32 15 20 C14.01 19.67 13.02 19.34 12 19 C11.690625 18.195625 11.38125 17.39125 11.0625 16.5625 C9.75594785 13.41140365 8.96497812 13.44013223 6 12 C2.2148953 8.12686961 0.38895251 5.44533513 0 0 Z " fill="#131210" transform="translate(527,91)"/>
<path d="M0 0 C5.75 0.875 5.75 0.875 8 2 C8 3.65 8 5.3 8 7 C8.66 7.33 9.32 7.66 10 8 C12.96586366 12.53539004 14.54957922 16.50420782 14 22 C13.34 22.33 12.68 22.66 12 23 C11.78085937 22.154375 11.56171875 21.30875 11.3359375 20.4375 C8.99058333 12.04761518 6.14528451 6.14528451 0 0 Z " fill="#0E0D0B" transform="translate(427,66)"/>
<path d="M0 0 C5.68280467 1.48247078 5.68280467 1.48247078 7.1875 3.9375 C7.455625 4.618125 7.72375 5.29875 8 6 C8.53625 6.53625 9.0725 7.0725 9.625 7.625 C10.07875 8.07875 10.5325 8.5325 11 9 C11 9.66 11 10.32 11 11 C11.66 11 12.32 11 13 11 C13 12.32 13 13.64 13 15 C14.4166747 16.7511573 14.4166747 16.7511573 16 18 C15.01 18.66 14.02 19.32 13 20 C12.731875 19.3709375 12.46375 18.741875 12.1875 18.09375 C9.45968392 12.1356254 6.44224097 7.98486801 1.57421875 3.59375 C0 2 0 2 0 0 Z " fill="#141412" transform="translate(789,66)"/>
<path d="M0 0 C4.9498573 1.9445868 7.30680833 5.4932202 9.484375 10.2265625 C9.90203125 11.34804688 10.3196875 12.46953125 10.75 13.625 C11.39195312 15.31496094 11.39195312 15.31496094 12.046875 17.0390625 C13 20 13 20 13 23 C12.34 23 11.68 23 11 23 C11 22.01 11 21.02 11 20 C10.34 20 9.68 20 9 20 C8.7834375 18.39125 8.7834375 18.39125 8.5625 16.75 C8.16250558 14.08337051 7.72408076 11.58600271 7 9 C5.68 8.67 4.36 8.34 3 8 C2.87625 7.195625 2.7525 6.39125 2.625 5.5625 C2.315625 4.2940625 2.315625 4.2940625 2 3 C1.34 2.67 0.68 2.34 0 2 C0 1.34 0 0.68 0 0 Z " fill="#78A0DE" transform="translate(232,34)"/>
<path d="M0 0 C-1.37959894 4.13879683 -3.20574336 4.93040547 -7 7 C-9.70194952 7.59180941 -12.22670701 7.80873841 -15 8 C-15.33 8.99 -15.66 9.98 -16 11 C-17.65 11.33 -19.3 11.66 -21 12 C-20 9 -20 9 -18.26586914 7.83325195 C-17.16166626 7.29124146 -17.16166626 7.29124146 -16.03515625 6.73828125 C-14.83536133 6.14370117 -14.83536133 6.14370117 -13.61132812 5.53710938 C-12.77021484 5.13298828 -11.92910156 4.72886719 -11.0625 4.3125 C-10.22525391 3.89677734 -9.38800781 3.48105469 -8.52539062 3.05273438 C-2.29460437 0 -2.29460437 0 0 0 Z " fill="#8AA8E2" transform="translate(181,33)"/>
<path d="M0 0 C0.33 0.66 0.66 1.32 1 2 C0.37915039 3.69580078 0.37915039 3.69580078 -0.65234375 5.6953125 C-1.01650391 6.41074219 -1.38066406 7.12617188 -1.75585938 7.86328125 C-2.14580078 8.60964844 -2.53574219 9.35601562 -2.9375 10.125 C-3.32357422 10.87910156 -3.70964844 11.63320312 -4.10742188 12.41015625 C-5.06452132 14.27709097 -6.03136106 16.13902628 -7 18 C-8.58791315 14.82417369 -8.41019741 11.45838847 -8 8 C-6.625 6 -6.625 6 -5 5 C-4.34 5 -3.68 5 -3 5 C-2.67 4.01 -2.34 3.02 -2 2 C-1.34 1.34 -0.68 0.68 0 0 Z " fill="#75A2DF" transform="translate(268,133)"/>
<path d="M0 0 C1.14648456 1.14648456 2.29264281 2.29329663 3.4375 3.44140625 C4.53654851 4.53770714 5.64124388 5.62836175 6.75 6.71484375 C10.06515371 9.97998437 13.28630016 13.20082023 16 17 C16 17.66 16 18.32 16 19 C12.65851561 17.82596494 10.18896282 16.84565166 8 14 C7.835 13.319375 7.67 12.63875 7.5 11.9375 C7.12732749 9.60312807 7.12732749 9.60312807 4 8 C3.34 7.67 2.68 7.34 2 7 C2 6.34 2 5.68 2 5 C1.34 4.67 0.68 4.34 0 4 C0 2.68 0 1.36 0 0 Z " fill="#151412" transform="translate(554,123)"/>
<path d="M0 0 C2.33223736 3.49835604 3.15245549 6.91404733 4.125 10.9375 C4.30675781 11.65357422 4.48851562 12.36964844 4.67578125 13.10742188 C5.52085109 16.53535554 6 19.44772031 6 23 C5.34 23 4.68 23 4 23 C3.690625 21.88625 3.38125 20.7725 3.0625 19.625 C2.17673517 16.2054845 2.17673517 16.2054845 1 14 C0.01 13.67 -0.98 13.34 -2 13 C-1.67 12.01 -1.34 11.02 -1 10 C0.04864989 6.62101704 0.08016319 3.52718046 0 0 Z " fill="#131412" transform="translate(451,69)"/>
<path d="M0 0 C0.66 0.66 1.32 1.32 2 2 C1.67 2.99 1.34 3.98 1 5 C0.443125 4.54109375 -0.11375 4.0821875 -0.6875 3.609375 C-8.56187394 -2.72204729 -14.7741672 -6.52658181 -25 -7 C-25 -7.33 -25 -7.66 -25 -8 C-15.157175 -10.30363989 -7.74049714 -5.87492278 0 0 Z " fill="#141312" transform="translate(926,68)"/>
<path d="M0 0 C1.59482789 3.18965577 2.86005615 6.28873555 4.05639648 9.63623047 C6.87782036 17.54553977 6.87782036 17.54553977 10.9375 24.875 C11.618125 25.90625 12.29875 26.9375 13 28 C12.67 28.66 12.34 29.32 12 30 C8.26638657 26.78136773 6.76196002 23.56507824 5 19 C4.4121875 17.5459375 4.4121875 17.5459375 3.8125 16.0625 C3.544375 15.381875 3.27625 14.70125 3 14 C2.01 14.495 2.01 14.495 1 15 C0.67 10.05 0.34 5.1 0 0 Z " fill="#80A3DD" transform="translate(245,57)"/>
<path d="M0 0 C5.92266403 4.0894585 9.25190086 9.3596515 12 16 C11.67 16.66 11.34 17.32 11 18 C9 17 9 17 8 14 C7.34 13.34 6.68 12.68 6 12 C4.93097837 10.54048083 3.89209842 9.05866652 2.875 7.5625 C2.33617187 6.78003906 1.79734375 5.99757813 1.2421875 5.19140625 C0 3 0 3 0 0 Z " fill="#11100F" transform="translate(679,63)"/>
<path d="M0 0 C-2.38573379 1.89213369 -4.07175348 3.02391783 -7 4 C-7.33 4.66 -7.66 5.32 -8 6 C-11.58646443 7.74199701 -15.06693147 8.45119974 -19 9 C-14.2692254 3.50619724 -7.57957423 -0.97800958 0 0 Z " fill="#131311" transform="translate(746,48)"/>
<path d="M0 0 C5.81182519 0.38745501 7.96397374 0.6856271 12 5 C14.66834966 5.33498301 14.66834966 5.33498301 17 5 C17.33 5.99 17.66 6.98 18 8 C12.03435204 7.49228528 7.36190101 5.61407872 2 3 C2 2.34 2 1.68 2 1 C1.34 0.67 0.68 0.34 0 0 Z " fill="#87ADEB" transform="translate(154,175)"/>
<path d="M0 0 C0.66 0.33 1.32 0.66 2 1 C2 3 2 3 0.3203125 4.7265625 C-0.40414063 5.35304688 -1.12859375 5.97953125 -1.875 6.625 C-2.59429687 7.25664063 -3.31359375 7.88828125 -4.0546875 8.5390625 C-6 10 -6 10 -8 10 C-9.62514468 11.45833358 -9.62514468 11.45833358 -11 13 C-11.33 12.01 -11.66 11.02 -12 10 C-10.37982158 8.66081194 -8.75370657 7.3288031 -7.125 6 C-6.22007812 5.2575 -5.31515625 4.515 -4.3828125 3.75 C-2 2 -2 2 0 2 C0 1.34 0 0.68 0 0 Z " fill="#151312" transform="translate(503,91)"/>
<path d="M0 0 C0.89203125 0.11085937 1.7840625 0.22171875 2.703125 0.3359375 C3.37859375 0.43132813 4.0540625 0.52671875 4.75 0.625 C4.75 0.955 4.75 1.285 4.75 1.625 C4.15574219 1.71136719 3.56148437 1.79773437 2.94921875 1.88671875 C-4.03072914 3.06994475 -9.93052483 5.47727662 -16.25 8.625 C-14.90112238 4.57836715 -12.83532466 3.80431499 -9.25 1.625 C-8.63253906 1.24730469 -8.01507812 0.86960938 -7.37890625 0.48046875 C-4.67943226 -0.60427401 -2.8677124 -0.37733058 0 0 Z " fill="#0D0D0C" transform="translate(626.25,59.375)"/>
<path d="M0 0 C1.27617188 0.02320313 2.55234375 0.04640625 3.8671875 0.0703125 C5.78917969 0.09738281 5.78917969 0.09738281 7.75 0.125 C9.23113281 0.15980469 9.23113281 0.15980469 10.7421875 0.1953125 C10.7421875 0.8553125 10.7421875 1.5153125 10.7421875 2.1953125 C5.50100325 3.94237392 0.05385614 3.52322966 -5.2578125 2.1953125 C-3.2578125 0.1953125 -3.2578125 0.1953125 0 0 Z " fill="#090806" transform="translate(760.2578125,162.8046875)"/>
<path d="M0 0 C1.32 0.33 2.64 0.66 4 1 C3.01 1.33 2.02 1.66 1 2 C1 3.32 1 4.64 1 6 C0.34 6 -0.32 6 -1 6 C-1 6.66 -1 7.32 -1 8 C-1.99 8.495 -1.99 8.495 -3 9 C-3.72159424 10.64363134 -4.39351421 12.31050386 -5 14 C-5.99 13.67 -6.98 13.34 -8 13 C-5.36 8.71 -2.72 4.42 0 0 Z " fill="#101010" transform="translate(678,121)"/>
<path d="M0 0 C3.44428265 1.44781793 5.36130962 3.27694609 7.75 6.125 C8.36359375 6.84945312 8.9771875 7.57390625 9.609375 8.3203125 C10.29773438 9.15175781 10.29773438 9.15175781 11 10 C9.68 10.33 8.36 10.66 7 11 C6.67 9.68 6.34 8.36 6 7 C5.01 7.33 4.02 7.66 3 8 C0 3.375 0 3.375 0 0 Z " fill="#10100E" transform="translate(570,142)"/>
<path d="M0 0 C0.66 0.99 1.32 1.98 2 3 C3.32054275 4.79673847 4.64544956 6.58998279 5.9765625 8.37890625 C7 10 7 10 7 12 C7.66 12 8.32 12 9 12 C9 12.66 9 13.32 9 14 C7.125 13.6875 7.125 13.6875 5 13 C4.34 12.01 3.68 11.02 3 10 C2.484375 9.360625 1.96875 8.72125 1.4375 8.0625 C-0.0262721 5.96230525 -0.66354972 4.52337706 -1 2 C-0.67 1.34 -0.34 0.68 0 0 Z " fill="#0D0E0A" transform="translate(724,124)"/>
<path d="M0 0 C4.37648119 2.5985357 8.68958661 5.29395884 13 8 C10.8614515 10.1385485 9.86724686 10.42655063 7 11 C6.95875 10.4225 6.9175 9.845 6.875 9.25 C5.57739692 5.91330635 2.92324967 4.92810084 0 3 C0 2.01 0 1.02 0 0 Z " fill="#0E0E0A" transform="translate(733,138)"/>
<path d="M0 0 C0.66 0 1.32 0 2 0 C2 4.33333333 2 8.66666667 2 13 C1.34 13 0.68 13 0 13 C0 14.98 0 16.96 0 19 C-0.33 19 -0.66 19 -1 19 C-1.09507063 12.56688704 -1.15316726 6.34241995 0 0 Z " fill="#0E0E0D" transform="translate(705,92)"/>
<path d="M0 0 C12.9019095 -0.68912276 12.9019095 -0.68912276 16.8125 2 C17.534375 2.66 18.25625 3.32 19 4 C18.67 4.66 18.34 5.32 18 6 C17.071875 5.54625 16.14375 5.0925 15.1875 4.625 C10.32360231 2.51330779 5.21136509 1.80102357 0 1 C0 0.67 0 0.34 0 0 Z " fill="#131211" transform="translate(638,59)"/>
<path d="M0 0 C4.04161955 1.34484714 6.38678154 3.0505162 9.3125 6.125 C10.00988281 6.84945312 10.70726562 7.57390625 11.42578125 8.3203125 C11.94527344 8.87460937 12.46476563 9.42890625 13 10 C12.67 10.66 12.34 11.32 12 12 C11.01 11.34 10.02 10.68 9 10 C9 9.34 9 8.68 9 8 C7.68 7.67 6.36 7.34 5 7 C5 6.34 5 5.68 5 5 C4.360625 4.731875 3.72125 4.46375 3.0625 4.1875 C1 3 1 3 0 0 Z " fill="#0E0E0D" transform="translate(797,55)"/>
<path d="M0 0 C0.99 0.33 1.98 0.66 3 1 C-5.261959 8.48291572 -5.261959 8.48291572 -10 11 C-9.75 8.625 -9.75 8.625 -9 6 C-7.25 4.9375 -7.25 4.9375 -5 4 C-4.154375 3.278125 -3.30875 2.55625 -2.4375 1.8125 C-1.633125 1.214375 -0.82875 0.61625 0 0 Z " fill="#161412" transform="translate(542,78)"/>
<path d="M0 0 C0.99 0.33 1.98 0.66 3 1 C1.66073876 5.01778372 -0.49134469 5.78023848 -4 8 C-4.66 8.66 -5.32 9.32 -6 10 C-6.33 9.34 -6.66 8.68 -7 8 C-4.69 5.36 -2.38 2.72 0 0 Z " fill="#111210" transform="translate(725,57)"/>
<path d="M0 0 C2.0625 0.4375 2.0625 0.4375 4 1 C-0.74354436 3.22656164 -4.72250715 4.46148032 -10 5 C-9.67 4.01 -9.34 3.02 -9 2 C-6.94921875 1.77213542 -4.8984375 1.54427083 -2.84765625 1.31640625 C-0.98859771 1.18113386 -0.98859771 1.18113386 0 0 Z " fill="#121210" transform="translate(661,159)"/>
<path d="M0 0 C3.88862987 1.26117725 5.89375599 2.45264167 8 6 C8 6.66 8 7.32 8 8 C8.66 8 9.32 8 10 8 C10 8.99 10 9.98 10 11 C9.34 11 8.68 11 8 11 C6.56197818 9.4089357 5.19674665 7.7513985 3.875 6.0625 C3.15054688 5.14597656 2.42609375 4.22945312 1.6796875 3.28515625 C0 1 0 1 0 0 Z " fill="#88B0EF" transform="translate(132,155)"/>
<path d="M0 0 C0.66 0 1.32 0 2 0 C3.32229189 2.64458379 3.09677194 4.67761301 3.0625 7.625 C3.05347656 8.62789062 3.04445313 9.63078125 3.03515625 10.6640625 C3.02355469 11.43492188 3.01195312 12.20578125 3 13 C2.01 13.495 2.01 13.495 1 14 C0.34 13.67 -0.32 13.34 -1 13 C-1 12.34 -1 11.68 -1 11 C-0.34 11 0.32 11 1 11 C1 8.03 1 5.06 1 2 C0.34 1.67 -0.32 1.34 -1 1 C-0.67 0.67 -0.34 0.34 0 0 Z " fill="#12110F" transform="translate(819,98)"/>
<path d="M0 0 C3.23501466 3.72026686 5.57417568 8.29146387 7 13 C6.609375 15.28125 6.609375 15.28125 6 17 C4.74335022 14.09399739 4 12.20395416 4 9 C3.01 8.67 2.02 8.34 1 8 C0.67 5.36 0.34 2.72 0 0 Z " fill="#739CD5" transform="translate(262,93)"/>
<path d="M0 0 C0.98484375 0.01804688 1.9696875 0.03609375 2.984375 0.0546875 C4.10585938 0.08949219 4.10585938 0.08949219 5.25 0.125 C4.92 1.115 4.59 2.105 4.25 3.125 C-3.67 3.62 -3.67 3.62 -11.75 4.125 C-8.05927715 0.43427715 -5.16068006 -0.12287333 0 0 Z " fill="#151312" transform="translate(400.75,57.875)"/>
<path d="M0 0 C3.48330216 0.64505596 6.09432866 1.98217268 9 4 C9 4.66 9 5.32 9 6 C10.32 6.66 11.64 7.32 13 8 C12.01 8.33 11.02 8.66 10 9 C10 8.34 10 7.68 10 7 C9.4225 6.896875 8.845 6.79375 8.25 6.6875 C5.64338842 5.89103535 4.0264689 4.80934723 2 3 C2 2.34 2 1.68 2 1 C1.34 0.67 0.68 0.34 0 0 Z " fill="#0B0B0A" transform="translate(861,150)"/>
<path d="M0 0 C3.45542719 1.53574542 6.24870989 3.39742827 9 6 C9.8125 8.75 9.8125 8.75 10 11 C9.278125 10.2575 8.55625 9.515 7.8125 8.75 C5.09288953 5.98732731 5.09288953 5.98732731 2.1875 3.8125 C1.465625 3.214375 0.74375 2.61625 0 2 C0 1.34 0 0.68 0 0 Z " fill="#121110" transform="translate(662,67)"/>
<path d="M0 0 C0.99 0 1.98 0 3 0 C3.99 3.3 4.98 6.6 6 10 C4.68 9.67 3.36 9.34 2 9 C1.34 6.03 0.68 3.06 0 0 Z " fill="#12120F" transform="translate(851,118)"/>
<path d="M0 0 C2.8953631 1.93024206 4.27536874 3.04348926 6 6 C6.1875 9.25 6.1875 9.25 6 12 C3.32289809 10.66144904 3.04870906 9.27941912 1.875 6.5625 C1.52179687 5.75941406 1.16859375 4.95632812 0.8046875 4.12890625 C0 2 0 2 0 0 Z " fill="#151511" transform="translate(673,81)"/>
<path d="M0 0 C0.33 0.99 0.66 1.98 1 3 C-3.625 6 -3.625 6 -7 6 C-7.33 6.99 -7.66 7.98 -8 9 C-8.99 8.34 -9.98 7.68 -11 7 C-7.37 4.69 -3.74 2.38 0 0 Z " fill="#81ADF0" transform="translate(149,52)"/>
<path d="M0 0 C2.475 0.495 2.475 0.495 5 1 C5 1.66 5 2.32 5 3 C6.65 3.33 8.3 3.66 10 4 C10 4.99 10 5.98 10 7 C8.824375 6.505 8.824375 6.505 7.625 6 C5.15667503 4.88133489 5.15667503 4.88133489 3 5 C1.375 2.5 1.375 2.5 0 0 Z " fill="#10100E" transform="translate(786,49)"/>
<path d="M0 0 C-0.66 0 -1.32 0 -2 0 C-2.103125 0.639375 -2.20625 1.27875 -2.3125 1.9375 C-2.539375 2.618125 -2.76625 3.29875 -3 4 C-3.99 4.33 -4.98 4.66 -6 5 C-6.99 4.34 -7.98 3.68 -9 3 C-8.34 3 -7.68 3 -7 3 C-6.67 2.01 -6.34 1.02 -6 0 C-3.50907189 -1.24546405 -2.58919267 -0.7767578 0 0 Z " fill="#171815" transform="translate(564,48)"/>
<path d="M0 0 C4.7517398 0.43197635 6.92000054 1.32769295 10 5 C9.01 5.495 9.01 5.495 8 6 C4.4375 4.75 4.4375 4.75 1 3 C0.67 2.01 0.34 1.02 0 0 Z " fill="#181818" transform="translate(809,122)"/>
<path d="M0 0 C1.98 0.99 1.98 0.99 4 2 C4.83886169 4.67790463 4.81766414 7.1737941 5 10 C4.34 10 3.68 10 3 10 C2.01 6.7 1.02 3.4 0 0 Z " fill="#0F0F0E" transform="translate(578,120)"/>
<path d="M0 0 C0.33 0.99 0.66 1.98 1 3 C0.54625 3.37125 0.0925 3.7425 -0.375 4.125 C-2.23211503 6.0193929 -2.23211503 6.0193929 -3 9.125 C-3.33 10.07375 -3.66 11.0225 -4 12 C-4.99 12.33 -5.98 12.66 -7 13 C-5.60332244 8.11162854 -3.65571105 3.65571105 0 0 Z " fill="#11110F" transform="translate(717,66)"/>
<path d="M0 0 C1.36244796 1.64295195 2.69864875 3.30824337 4 5 C-1.94 3.515 -1.94 3.515 -8 2 C-7.67 1.34 -7.34 0.68 -7 0 C-2.52459016 -1.26229508 -2.52459016 -1.26229508 0 0 Z " fill="#13130E" transform="translate(421,59)"/>
<path d="M0 0 C0 4.31618166 -2.13270348 5.92789659 -5 9 C-5.66 9 -6.32 9 -7 9 C-7.33 9.66 -7.66 10.32 -8 11 C-7.52653165 6.73878485 -5.03860562 4.81626862 -2 2 C-1.34 1.34 -0.68 0.68 0 0 Z " fill="#111110" transform="translate(379,52)"/>
<path d="M0 0 C4.5076467 0.53031138 7.41954788 2.25221116 11 5 C11 5.66 11 6.32 11 7 C1.78947368 3.57894737 1.78947368 3.57894737 0 0 Z " fill="#121111" transform="translate(428,48)"/>
<path d="M0 0 C0.66 0.33 1.32 0.66 2 1 C0.02 3.97 0.02 3.97 -2 7 C-4.97 6.505 -4.97 6.505 -8 6 C-5.33333333 4 -2.66666667 2 0 0 Z " fill="#7DA7F1" transform="translate(158,46)"/>
<path d="M0 0 C3.63 0.66 7.26 1.32 11 2 C6.8204355 4.78637633 4.85331323 3.79562512 0 3 C0 2.01 0 1.02 0 0 Z " fill="#131311" transform="translate(616,160)"/>
<path d="M0 0 C0.66 1.32 1.32 2.64 2 4 C0.68 5.65 -0.64 7.3 -2 9 C-3.10102197 5.69693408 -2.95067299 4.28414305 -2 1 C-1.34 0.67 -0.68 0.34 0 0 Z " fill="#7DACF2" transform="translate(268,127)"/>
<path d="M0 0 C1.875 0.1875 1.875 0.1875 4 1 C5.25 3.5625 5.25 3.5625 6 6 C5.01 6 4.02 6 3 6 C2.67 5.01 2.34 4.02 2 3 C1.34 3 0.68 3 0 3 C0 2.01 0 1.02 0 0 Z " fill="#77A3EF" transform="translate(248,77)"/>
<path d="M0 0 C0.99 0.33 1.98 0.66 3 1 C1.1875 4 1.1875 4 -1 7 C-1.99 7 -2.98 7 -4 7 C-2.68 4.69 -1.36 2.38 0 0 Z " fill="#D7DFF0" transform="translate(36,77)"/>
<path d="M0 0 C0.66 0.33 1.32 0.66 2 1 C1.54625 1.433125 1.0925 1.86625 0.625 2.3125 C-1.20024334 4.10798342 -1.20024334 4.10798342 -3 7 C-3 6.34 -3 5.68 -3 5 C-3.99 5.33 -4.98 5.66 -6 6 C-4.98545548 3.4636387 -4.3146444 2.20648539 -2 0.6875 C-1.34 0.460625 -0.68 0.23375 0 0 Z " fill="#141412" transform="translate(788,143)"/>
<path d="M0 0 C0.66 0 1.32 0 2 0 C0.62845496 2.95409701 -0.98863724 5.44008376 -3 8 C-3.99 7.67 -4.98 7.34 -6 7 C-5.04882866 5.8274869 -4.08882991 4.66212985 -3.125 3.5 C-2.59132813 2.8503125 -2.05765625 2.200625 -1.5078125 1.53125 C-0.76144531 0.77328125 -0.76144531 0.77328125 0 0 Z " fill="#141412" transform="translate(798,134)"/>
<path d="M0 0 C5.75 0.875 5.75 0.875 8 2 C8 3.32 8 4.64 8 6 C4.63408134 4.55746343 2.48952921 2.66735273 0 0 Z " fill="#151411" transform="translate(427,66)"/>
<path d="M0 0 C0 0.99 0 1.98 0 3 C-0.56203125 2.68289062 -1.1240625 2.36578125 -1.703125 2.0390625 C-4.15196317 0.93125475 -6.08387855 0.61024601 -8.75 0.375 C-9.54921875 0.30023438 -10.3484375 0.22546875 -11.171875 0.1484375 C-11.77515625 0.09945312 -12.3784375 0.05046875 -13 0 C-13 -0.33 -13 -0.66 -13 -1 C-7.96488101 -2.0070238 -4.76052962 -1.97387813 0 0 Z " fill="#0C0B0A" transform="translate(914,61)"/>
<path d="M0 0 C0.66 0.33 1.32 0.66 2 1 C-0.97 5.95 -0.97 5.95 -4 11 C-4.66 10.67 -5.32 10.34 -6 10 C-4.02 6.7 -2.04 3.4 0 0 Z " fill="#10100F" transform="translate(805,122)"/>
<path d="M0 0 C0.33 0 0.66 0 1 0 C1.33 2.31 1.66 4.62 2 7 C0.68 7 -0.64 7 -2 7 C-2.125 4.625 -2.125 4.625 -2 2 C-1.34 1.34 -0.68 0.68 0 0 Z " fill="#73A2ED" transform="translate(244,57)"/>
<path d="M0 0 C6.52307692 1.35384615 6.52307692 1.35384615 8.9375 4.625 C9.288125 5.40875 9.63875 6.1925 10 7 C6.42032008 5.34784004 3.22017048 3.26875648 0 1 C0 0.67 0 0.34 0 0 Z " fill="#87AEEF" transform="translate(142,166)"/>
<path d="M0 0 C1.21744727 3.65234182 0.64202228 4.62953322 -1 8 C-1.66 8.66 -2.32 9.32 -3 10 C-2.25 3.375 -2.25 3.375 0 0 Z " fill="#0B0B0A" transform="translate(582,79)"/>
<path d="M0 0 C2.8086289 2.8086289 2.72711179 5.11134294 3 9 C2.34 9.99 1.68 10.98 1 12 C0.67 8.04 0.34 4.08 0 0 Z " fill="#131311" transform="translate(949,81)"/>
<path d="M0 0 C0 0.66 0 1.32 0 2 C-2.30368736 3.06652192 -4.64018187 4.06421005 -7 5 C-7.66 4.67 -8.32 4.34 -9 4 C-3.375 0 -3.375 0 0 0 Z " fill="#10100F" transform="translate(876,50)"/>
<path d="M0 0 C3 1 3 1 3 1 Z M0 2 C-0.99 3.32 -1.98 4.64 -3 6 C-3.99 5.67 -4.98 5.34 -6 5 C-6 4.01 -6 3.02 -6 2 C-3 1 -3 1 0 2 Z " fill="#171716" transform="translate(390,47)"/>
<path d="M0 0 C0.66 0.33 1.32 0.66 2 1 C1.01 1.33 0.02 1.66 -1 2 C-1 2.66 -1 3.32 -1 4 C-2.98 4.66 -4.96 5.32 -7 6 C-7 5.34 -7 4.68 -7 4 C-1.7265625 0.77734375 -1.7265625 0.77734375 0 0 Z " fill="#10110D" transform="translate(920,143)"/>
<path d="M0 0 C1.80411967 2.75924185 2.0127245 3.88972103 1.625 7.25 C1.41875 8.1575 1.2125 9.065 1 10 C0.67 10 0.34 10 0 10 C-0.19412181 8.52168779 -0.38012131 7.04230684 -0.5625 5.5625 C-0.66691406 4.73878906 -0.77132812 3.91507812 -0.87890625 3.06640625 C-0.91886719 2.38449219 -0.95882812 1.70257813 -1 1 C-0.67 0.67 -0.34 0.34 0 0 Z " fill="#131410" transform="translate(805,87)"/>
<path d="M0 0 C1.25541557 3.76624671 0.37061958 5.37188934 -1 9 C-1.66 8.67 -2.32 8.34 -3 8 C-2.45276317 4.62537285 -1.9451 2.91765 0 0 Z " fill="#100F0B" transform="translate(854,86)"/>
<path d="M0 0 C3.25543229 0.34879632 4.01873107 1.02133261 6.25 3.5625 C6.8275 4.366875 7.405 5.17125 8 6 C7.01 6 6.02 6 5 6 C4.67 5.01 4.34 4.02 4 3 C1.99983534 1.79117904 1.99983534 1.79117904 0 1 C0 0.67 0 0.34 0 0 Z " fill="#12110F" transform="translate(671,57)"/>
<path d="M0 0 C3.96 1.98 3.96 1.98 8 4 C7.67 4.66 7.34 5.32 7 6 C4.0625 5.25 4.0625 5.25 1 4 C0.67 2.68 0.34 1.36 0 0 Z " fill="#141413" transform="translate(615,144)"/>
<path d="M0 0 C2.475 0.99 2.475 0.99 5 2 C2.8614515 4.1385485 1.86724686 4.42655063 -1 5 C-0.67 3.35 -0.34 1.7 0 0 Z " fill="#151512" transform="translate(741,144)"/>
<path d="M0 0 C2.72426311 2.35277269 3.8141763 4.62496331 5 8 C4.34 8 3.68 8 3 8 C3 7.34 3 6.68 3 6 C2.01 6 1.02 6 0 6 C0 4.02 0 2.04 0 0 Z " fill="#0C0C0A" transform="translate(814,73)"/>
<path d="M0 0 C0.33 1.32 0.66 2.64 1 4 C-1.475 5.485 -1.475 5.485 -4 7 C-4.33 5.68 -4.66 4.36 -5 3 C-4.34 2.67 -3.68 2.34 -3 2 C-2.01 2.33 -1.02 2.66 0 3 C0 2.01 0 1.02 0 0 Z " fill="#1A1A16" transform="translate(734,65)"/>
<path d="M0 0 C0.66 0.33 1.32 0.66 2 1 C-0.35277269 3.72426311 -2.62496331 4.8141763 -6 6 C-5 3 -5 3 -2.5625 1.25 C-1.716875 0.8375 -0.87125 0.425 0 0 Z " fill="#171612" transform="translate(616,62)"/>
</svg>
